<svg id="Layer_1" viewBox="0 0 512 512" xmlns="http://www.w3.org/2000/svg" data-name="Layer 1"><g fill-rule="evenodd"><path d="m278.906 389.836c-.029-13.266-6.69-27.383-18.709-32.74l-84.047-37.559c-16.611-7.427-31.38-5.868-47.679-.595l-85.465 27.637 35.688 114.86 49.862-13.067 74.324 27.184c18.4 6.718 34.356 10.857 50.712 2.494l160.866-82.176c13.125-7.172 31.04-12.926 24.491-35.32-3.77-12.869-16.072-20.693-27.325-17.4z" fill="#faba7b"/><path d="m13.271 328.92 40.989-11.991a8.708 8.708 0 0 1 10.8 5.9l43.88 150.009a8.7 8.7 0 0 1 -5.9 10.8l-41.017 12.02a8.761 8.761 0 0 1 -10.8-5.925l-43.877-150.014a8.747 8.747 0 0 1 5.925-10.8z" fill="#69a7ff"/><path d="m398.726 281.836a31.479 31.479 0 0 0 7.512-26.079l-3.827-25.285c-6.718-44.447-36.794-81.723-81.751-81.723h-45.128c-44.957 0-75.033 37.276-81.751 81.723l-3.827 25.285a31.479 31.479 0 0 0 7.512 26.079c24.066 27.978 178.7 26.249 201.26 0z" fill="#fb4455"/><path d="m242 72.129a56.1 56.1 0 1 1 112.2 0c0 102.161-112.2 102.161-112.2 0z" fill="#faba7b"/><path d="m402.014 81.172a15.222 15.222 0 1 0 -15.222-15.223 15.268 15.268 0 0 0 15.222 15.223z" fill="#ffab02"/><path d="m445.9 130.466a15.236 15.236 0 1 0 -15.223-15.25 15.267 15.267 0 0 0 15.223 15.25z" fill="#69a7ff"/><path d="m489.775 89.364a15.222 15.222 0 1 0 -15.222-15.222 15.244 15.244 0 0 0 15.222 15.222z" fill="#fb4455"/><path d="m181.847 149.8a33.493 33.493 0 0 1 33.506-33.477 33.5 33.5 0 0 1 -33.506-33.5 33.492 33.492 0 0 1 -33.477 33.5 33.486 33.486 0 0 1 33.477 33.477z" fill="#69a7ff"/><path d="m127.762 214.428a27.05 27.05 0 0 1 27.071-27.071 27.068 27.068 0 0 1 -27.071-27.07 27.086 27.086 0 0 1 -27.071 27.07 27.068 27.068 0 0 1 27.071 27.071z" fill="#ffab02"/><path d="m59.7 472.778-42.4-145.049-4.025 1.191a8.747 8.747 0 0 0 -5.925 10.8l43.881 150.01a8.761 8.761 0 0 0 10.8 5.925l41.017-12.02a8.7 8.7 0 0 0 5.9-10.8l-1.446-4.96-37.002 10.799a8.721 8.721 0 0 1 -10.8-5.9z" fill="#4c8fed"/><path d="m202.88 461.581-74.324-27.181-28.656 7.508 3.8 12.983 24.86-6.519 74.324 27.184c18.4 6.718 34.356 10.857 50.712 2.494l160.866-82.176c12.841-7 30.3-12.671 24.86-33.931-3.515 10.375-15.42 14.8-24.86 19.956l-160.87 82.201c-16.356 8.334-32.315 4.195-50.712-2.523z" fill="#f5ad65"/><path d="m212.717 230.472c6.718-44.447 36.793-81.723 81.751-81.723h-18.936c-44.957 0-75.033 37.276-81.751 81.723l-3.827 25.285a31.479 31.479 0 0 0 7.512 26.079c12.7 14.769 61.739 21.26 108.539 20.239-40.422-.878-78.633-7.455-89.6-20.239a31.475 31.475 0 0 1 -7.512-26.079z" fill="#e82e41"/><path d="m256.937 72.129a56.319 56.319 0 0 1 48.643-55.616 54.745 54.745 0 0 0 -7.48-.513 56.286 56.286 0 0 0 -56.1 56.129c0 51.08 28.035 76.62 56.1 76.62a47.591 47.591 0 0 0 7.484-.623c-25.37-4.139-48.643-29.481-48.643-76z" fill="#f5ad65"/></g><path d="m409.674 336.432c-.12.035-.24.074-.359.115l-124.409 43.764c-2.442-11.945-9.465-24.082-21.855-29.6l-84.051-37.568c-20.485-9.142-38.138-5.566-52.71-.861l-52.1 16.866-2.422-8.282a15.7 15.7 0 0 0 -19.478-10.656l-40.978 11.99a15.738 15.738 0 0 0 -10.684 19.47l43.879 150a15.71 15.71 0 0 0 19.472 10.685l41.044-12a15.709 15.709 0 0 0 10.618-19.455l-3.241-11.075 15.8-4.144 72.276 26.435c10.847 3.961 22.136 7.56 33.673 7.56a48.87 48.87 0 0 0 22.618-5.379l160.875-82.21c.053-.027.107-.055.16-.084 1.439-.783 2.946-1.552 4.543-2.368 12.238-6.249 30.733-15.694 23.316-41.028-4.861-16.607-21.004-26.547-35.987-22.175zm-307.586 139.685a1.723 1.723 0 0 1 -1.01.835l-41 11.988a1.766 1.766 0 0 1 -2.148-1.176l-43.878-150a1.747 1.747 0 0 1 .157-1.319 1.7 1.7 0 0 1 1-.824l.015-.005 41.014-12a1.65 1.65 0 0 1 .461-.066 1.757 1.757 0 0 1 .829.216 1.683 1.683 0 0 1 .819 1.008l43.89 150.07a1.64 1.64 0 0 1 -.149 1.273zm313.912-88.929c-1.58.807-3.212 1.641-4.788 2.5l-160.79 82.161c-13.094 6.67-25.97 4.141-45.141-2.86l-74.329-27.189a7 7 0 0 0 -4.173-.2l-18.3 4.8-30.37-103.84 52.476-16.987c17.3-5.587 29.678-5.491 42.711.325l84.058 37.564c8.552 3.812 14.542 14.658 14.567 26.375 0 .031.006.061.006.091s-.006.067-.006.1a27.94 27.94 0 0 1 -1.786 9.818c-5.522 14.577-19.8 15.1-30.357 11.128l-56.578-21.225a6.987 6.987 0 0 0 -4.91 13.084l56.574 21.23a45.625 45.625 0 0 0 16.065 3.073c14.586 0 26.869-8.049 32.275-22.317a41.037 41.037 0 0 0 2.4-9.937l128.149-45.082c7.429-2.053 15.868 3.74 18.5 12.734 3.981 13.592-2.836 17.801-16.253 24.654zm-153.22-244.5c-18.1 2.746-34.355 11.4-47.551 25.445-14.672 15.613-24.742 37.374-28.354 61.272l-3.827 25.283a38.378 38.378 0 0 0 9.124 31.687c18.169 21.122 84.414 22.772 104.383 22.772h.056c14.67 0 88.787-1.11 107.42-22.765a38.373 38.373 0 0 0 9.13-31.69l-3.826-25.285c-3.612-23.9-13.683-45.661-28.355-61.274-13.195-14.04-29.45-22.7-47.55-25.445a64.776 64.776 0 0 0 8.638-8.678c12.512-15.19 19.125-36.6 19.125-61.91a63.088 63.088 0 0 0 -126.176 0c0 25.312 6.613 46.72 19.125 61.91a64.717 64.717 0 0 0 8.634 8.682zm132.732 88.812 3.828 25.291a24.468 24.468 0 0 1 -5.895 20.466l-.008.009c-7.645 8.893-43.361 17.9-96.832 17.908h-.068c-46.142 0-84.7-7.363-93.78-17.918a24.469 24.469 0 0 1 -5.9-20.469l3.833-25.287c5.7-37.721 31.055-75.783 74.846-75.783h45.13c43.79-.001 69.144 38.061 74.846 75.783zm-97.412-208.509a49.169 49.169 0 0 1 49.114 49.109c0 47.845-25.459 69.636-49.113 69.636s-49.113-21.787-49.113-69.636a49.169 49.169 0 0 1 49.112-49.109zm-250.393 322.734a6.988 6.988 0 1 1 -13.558 3.389l-.028-.114a6.987 6.987 0 1 1 13.558-3.388zm347.33-258.725v60.451a6.988 6.988 0 0 0 13.975 0v-60.451a22.2 22.2 0 0 0 0-42.157v-12.087a6.988 6.988 0 0 0 -13.975 0v12.089a22.2 22.2 0 0 0 0 42.157zm6.987-29.314a8.236 8.236 0 1 1 -8.235 8.236 8.246 8.246 0 0 1 8.235-8.234zm-301.338 136.639a20.107 20.107 0 0 1 20.084 20.085 6.988 6.988 0 0 0 13.976 0 20.107 20.107 0 0 1 20.084-20.085 6.988 6.988 0 1 0 0-13.975 20.106 20.106 0 0 1 -20.084-20.084 6.988 6.988 0 0 0 -13.976 0 20.107 20.107 0 0 1 -20.084 20.084 6.988 6.988 0 1 0 0 13.975zm27.072-13.412a34.351 34.351 0 0 0 6.425 6.425 34.326 34.326 0 0 0 -6.425 6.426 34.332 34.332 0 0 0 -6.426-6.426 34.356 34.356 0 0 0 6.426-6.425zm369.02-127.875v-20.282a6.988 6.988 0 0 0 -13.976 0v20.282a22.2 22.2 0 0 0 0 42.157v52.258a6.988 6.988 0 0 0 13.976 0v-52.259a22.2 22.2 0 0 0 0-42.156zm-6.988 29.314a8.236 8.236 0 1 1 8.235-8.235 8.246 8.246 0 0 1 -8.235 8.235zm-341.423 40.933a26.522 26.522 0 0 1 26.491 26.492 6.988 6.988 0 1 0 13.975 0 26.537 26.537 0 0 1 26.52-26.492 6.988 6.988 0 0 0 0-13.975 26.549 26.549 0 0 1 -26.52-26.519 6.988 6.988 0 1 0 -13.975 0 26.535 26.535 0 0 1 -26.491 26.519 6.988 6.988 0 1 0 0 13.975zm33.481-17.773a40.818 40.818 0 0 0 10.784 10.788 40.788 40.788 0 0 0 -10.784 10.776 40.758 40.758 0 0 0 -10.776-10.776 40.788 40.788 0 0 0 10.776-10.788zm271.052-11.396v-61.36a6.988 6.988 0 0 0 -13.976 0v61.36a22.223 22.223 0 0 0 0 42.183v11.154a6.988 6.988 0 0 0 13.976 0v-11.153a22.223 22.223 0 0 0 0-42.183zm-6.988 29.34a8.25 8.25 0 1 1 8.235-8.236 8.244 8.244 0 0 1 -8.24 8.236z"/></svg>