<svg id="Capa_1" enable-background="new 0 0 512.003 512.003" viewBox="0 0 512.003 512.003" xmlns="http://www.w3.org/2000/svg"><g><g><g><g><g><g><circle cx="111.194" cy="400.806" fill="#91deb6" r="103.694"/><g><path d="m37.581 400.534c0-2.468-5.915-4.91-5.695-7.321 3.477-38.131 33.849-68.489 71.986-71.945 2.396-.217 4.823 4.939 7.275 4.939 2.48 0 4.935-5.153 7.358-4.931 13.68 1.256 26.367 5.977 37.158 13.267 21.172 14.304 27.187 38.516 27.187 65.99 0 43.959-27.745 73.626-71.703 73.626-27.462 0-51.675-7.94-65.981-29.096-7.308-10.807-12.031-23.506-13.281-37.209-.219-2.409 5.696-4.851 5.696-7.32z" fill="#eaf6ff"/><path d="m155.664 334.544c8.594 12.709 13.628 28.043 13.628 44.54 0 43.959-35.635 79.594-79.594 79.594-16.497 0-31.822-5.019-44.531-13.613 13.028 19.266 34.273 32.521 58.705 34.736 2.396.217 4.823-3.546 7.276-3.546 2.481 0 4.935 3.761 7.358 3.539 38.101-3.493 68.433-33.838 71.904-71.946.219-2.408-6.11-4.847-6.11-7.313 0-2.465 6.329-4.904 6.11-7.313-2.226-24.418-15.489-45.656-34.746-58.678z" fill="#d8ecfe"/><circle cx="111.148" cy="399.366" fill="#7a6d79" r="14.381"/></g></g></g><g><g><path d="m337.946 406.09c-3.648 0-7.149-1.495-9.675-4.155l-31.386-33.05c-5.131-5.404-4.851-13.979.669-19.034 5.419-4.962 13.928-4.351 18.988.977l18.746 19.739c.845.89 2.285.816 3.034-.156l40.036-51.913c4.501-5.835 12.879-6.918 18.715-2.418s6.918 12.879 2.418 18.715l-50.976 66.099c-2.379 3.086-5.99 4.977-9.882 5.177-.23.013-.459.019-.687.019z" fill="#91deb6"/></g><g><path d="m424.304 311.624c6.993 12.125 11 26.187 11 41.191 0 45.444-37.206 82.65-82.65 82.649-15.004 0-29.066-4.007-41.19-11-5.14-2.965-11.222 2.047-9.435 7.705 2.569 8.134 6.12 15.832 10.505 22.961 18.356 29.838 51.412 35.135 89.082 34.839 56.286-.442 93.057-31.906 93.499-88.192.295-37.671-10.308-70.726-40.146-89.082-7.129-4.386-14.826-7.936-22.961-10.506-5.657-1.787-10.669 4.295-7.704 9.435z" fill="#ffe177"/><path d="m454.97 312.695c9.83 15.979 15.448 34.83 15.289 55.004-.441 56.286-46.434 102.279-102.72 102.72-20.175.158-39.025-5.46-55.005-15.289 18.356 29.838 51.412 49.663 89.082 49.367 56.286-.441 102.279-46.434 102.72-102.72.297-37.671-19.528-70.727-49.366-89.082z" fill="#ffd15b"/></g></g><g><g><path d="m359.55 39.45c9.94 33.23 10.215 68.65.275 101.87 5.57 2.9 8.807 8.71 8.807 15.42l-1.321 10.994c0 1.65-1.35 3-3 3l-36.478 2.546h-186.413c-1.65 0-3-1.35-3-3v-13.54c0-6.183 3.235-11.602 8.102-14.684.747-.473 1.084-1.379.838-2.229-9.354-32.288-9.354-66.585 0-98.883.246-.85-.091-1.756-.838-2.229-4.867-3.082-8.102-8.5-8.102-14.674v-13.541c0-1.66 1.35-3 3-3h13.54c6.81 0 12.693 3.923 15.541 9.63.404.81 1.298 1.244 2.185 1.059 48.488-10.146 98.36-11.336 147.174-3.579 7.03 1.12 14.04 7.909 21.02 9.399 2.54-6.45 8.81-14.064 16.16-14.064h10.575c1.65 0 3 1.34 3 3v11.095c0 6.7-5.495 12.51-11.065 15.41z" fill="#eaf6ff"/><path d="m364.64 40.944c9.354 32.298 9.354 66.594 0 98.883-.246.85.091 1.756.838 2.229 4.867 3.082 8.102 8.501 8.102 14.684v13.54c0 1.65-1.35 3-3 3h-49.72c-7.79-21.1-16.08-50.91-16.08-82.22 0-38.77 8.94-63.82 15.08-76.45 6.505 1.036 12.992 2.227 19.454 3.579.887.186 1.78-.248 2.185-1.059 2.848-5.707 8.731-9.63 15.541-9.63h13.54c1.65 0 3 1.34 3 3v13.54c0 6.174-3.235 11.593-8.102 14.674-.747.474-1.084 1.38-.838 2.23z" fill="#d8ecfe"/></g><path d="m278.107 148.947 33.63 6.067c19.053 3.437 32.913 20.021 32.913 39.382v52.714h-177.3v-52.714c0-19.361 13.86-35.945 32.913-39.382l33.63-6.067z" fill="#8ac9fe"/><path d="m278.108 148.947c-7.635 20.66-36.58 20.66-44.215 0l5.214-42.581h33.785c.001 0 5.215 42.581 5.216 42.581z" fill="#ffb09e"/><path d="m245.202 128.805c6.829 3.365 14.828 3.37 21.654.011 15.422-7.588 25.833-22.613 27.535-39.738l1.063-10.693c2.322-23.367-16.017-43.654-39.473-43.666-23.456-.012-41.774 20.256-39.428 43.625l1.074 10.694c1.719 17.127 12.145 32.163 27.575 39.767z" fill="#ffcebf"/><path d="m138.422 255.991v-16.845c0-5.552 4.501-10.053 10.053-10.053h181.046l32.003 2c5.552 0 10.053 4.501 10.053 10.053v12.845c0 2.209-1.791 4-4 4l-32.003 2h-193.152c-2.209 0-4-1.791-4-4z" fill="#eaf6ff"/><path d="m363.525 229.093h-36.004c5.552 0 10.053 4.501 10.053 10.053v16.845c0 2.209-1.791 4-4 4h36.004c2.209 0 4-1.791 4-4v-16.845c0-5.552-4.501-10.053-10.053-10.053z" fill="#d8ecfe"/></g></g></g></g><g><path d="m449.634 184.138c1.084 3.085 3.981 5.015 7.076 5.015.825 0 1.665-.138 2.487-.427 3.908-1.373 5.962-5.654 4.588-9.562-11.234-31.959-29.821-61.653-53.75-85.875-2.911-2.945-7.66-2.977-10.606-.063-2.947 2.911-2.976 7.659-.064 10.606 22.383 22.655 39.765 50.424 50.269 80.306z"/><path d="m458.313 216.844c2.347 12.795 3.537 25.97 3.537 39.156 0 1.3-.017 2.607-.04 3.915l-5.852-5.852c-2.929-2.928-7.678-2.928-10.606 0-2.929 2.93-2.929 7.678 0 10.607l18.605 18.605c1.464 1.464 3.384 2.196 5.303 2.196s3.839-.732 5.303-2.196l18.789-18.789c2.929-2.93 2.929-7.678 0-10.607-2.929-2.928-7.678-2.928-10.606 0l-5.935 5.935c.021-1.274.039-2.548.039-3.815 0-14.092-1.273-28.177-3.783-41.863-.748-4.074-4.663-6.771-8.73-6.023-4.074.748-6.771 4.657-6.024 8.731z"/><path d="m297.045 468.763c-26.438 4.987-54.323 4.988-80.767-.002-4.074-.771-7.993 1.909-8.761 5.979s1.909 7.992 5.979 8.761c14.138 2.667 28.662 4.02 43.17 4.02 14.506 0 29.026-1.352 43.159-4.018 4.07-.768 6.748-4.69 5.98-8.761s-4.693-6.75-8.76-5.979z"/><path d="m111.19 289.611c-23.352 0-45.706 7.165-64.645 20.721-3.368 2.41-4.145 7.096-1.733 10.464s7.096 4.145 10.464 1.733c16.378-11.722 35.713-17.918 55.915-17.918 53.045 0 96.2 43.155 96.2 96.199 0 53.04-43.155 96.19-96.2 96.19-53.041 0-96.191-43.15-96.191-96.19 0-19.888 6.023-38.979 17.418-55.21 2.38-3.391 1.562-8.067-1.829-10.448-3.39-2.378-8.068-1.562-10.448 1.829-13.176 18.768-20.141 40.84-20.141 63.829 0 61.31 49.879 111.19 111.19 111.19 61.316 0 111.2-49.88 111.2-111.19 0-61.316-49.884-111.199-111.2-111.199z"/><path d="m111.194 484.936c46.389 0 84.13-37.74 84.13-84.13s-37.741-84.13-84.13-84.13-84.13 37.74-84.13 84.13 37.741 84.13 84.13 84.13zm-7.5-152.846v8.229c0 4.143 3.358 7.5 7.5 7.5s7.5-3.357 7.5-7.5v-8.229c32.138 3.484 57.732 29.078 61.216 61.216h-8.229c-4.142 0-7.5 3.357-7.5 7.5s3.358 7.5 7.5 7.5h8.229c-3.484 32.138-29.078 57.732-61.216 61.216v-8.229c0-4.143-3.358-7.5-7.5-7.5s-7.5 3.357-7.5 7.5v8.229c-32.138-3.484-57.732-29.078-61.216-61.216h8.229c4.142 0 7.5-3.357 7.5-7.5s-3.358-7.5-7.5-7.5h-8.229c3.485-32.138 29.079-57.732 61.216-61.216z"/><path d="m91.727 390.865c-1.227 2.692-1.929 5.672-1.929 8.818 0 11.775 9.58 21.354 21.354 21.354s21.354-9.579 21.354-21.354c0-3.146-.702-6.126-1.929-8.818l19.9-19.9c2.929-2.93 2.929-7.678 0-10.607-2.929-2.928-7.678-2.928-10.606 0l-19.901 19.901c-2.692-1.227-5.672-1.929-8.818-1.929s-6.126.702-8.818 1.929l-6.806-6.806c-2.93-2.928-7.678-2.929-10.607.001-2.929 2.929-2.928 7.678 0 10.606zm25.779 8.818c0 3.504-2.851 6.354-6.354 6.354s-6.354-2.851-6.354-6.354 2.851-6.354 6.354-6.354 6.354 2.851 6.354 6.354z"/><path d="m490.286 334.758c-13.901-18.812-33.781-33.031-55.974-40.038-5.581-1.766-11.562.05-15.238 4.623-3.643 4.532-4.125 10.703-1.23 15.724 6.544 11.351 10.008 24.324 10.017 37.514 0 41.51-33.775 75.28-75.285 75.28-13.189-.01-26.159-3.474-37.509-10.018-5.019-2.896-11.191-2.411-15.723 1.229-4.574 3.677-6.389 9.658-4.625 15.235 7.008 22.197 21.228 42.077 40.04 55.978 19.241 14.219 42.05 21.719 66.022 21.718.295 0 .592-.001.887-.003 24.635-.188 47.969-8.36 67.477-23.635 3.262-2.554 3.835-7.268 1.282-10.529-2.554-3.26-7.268-3.835-10.529-1.281-16.876 13.214-37.051 20.284-58.344 20.445-21.055.182-41.036-6.332-57.88-18.778-15.637-11.555-27.606-27.875-33.9-46.158 13.085 7.06 27.826 10.786 42.798 10.797 49.786 0 90.29-40.5 90.29-90.285-.01-14.973-3.736-29.717-10.796-42.804 18.281 6.293 34.603 18.263 46.158 33.9 12.447 16.845 18.94 36.859 18.778 57.879-.144 18.045-5.376 35.626-15.133 50.841-2.236 3.487-1.222 8.126 2.265 10.362 3.488 2.236 8.126 1.222 10.362-2.265 11.287-17.601 17.34-37.94 17.506-58.821.185-24.296-7.324-47.432-21.716-66.91z"/><path d="m372.418 313.919-36.114 46.828-14.629-15.404c-7.915-8.333-21.134-8.676-29.466-.76-4.038 3.833-6.34 9.01-6.484 14.576-.144 5.565 1.888 10.854 5.722 14.892l31.386 33.049c3.917 4.125 9.426 6.49 15.113 6.49.355 0 .713-.009 1.071-.027 6.088-.313 11.714-3.262 15.435-8.088l50.976-66.099c3.4-4.409 4.88-9.878 4.167-15.399s-3.535-10.436-7.943-13.835c-9.102-7.02-22.215-5.323-29.234 3.777zm20.074 8.102c1.236.953 2.027 2.33 2.227 3.878s-.215 3.081-1.168 4.317l-50.977 66.099c-1.043 1.354-2.621 2.18-4.326 2.268-1.693.084-3.371-.582-4.538-1.812l-31.386-33.048c-1.075-1.132-1.645-2.615-1.604-4.176.04-1.561.686-3.011 1.818-4.086 1.128-1.072 2.577-1.604 4.022-1.604 1.547 0 3.091.608 4.238 1.816l20.659 21.753c1.508 1.588 3.635 2.441 5.823 2.325 2.188-.112 4.217-1.176 5.554-2.91l41.461-53.762c1.969-2.55 5.645-3.028 8.197-1.058z"/><path d="m138.42 180.781h23.423c-1.292 4.329-1.993 8.9-1.993 13.615v27.197h-11.375c-9.679 0-17.553 7.874-17.553 17.553v20.846c0 4.143 3.358 7.5 7.5 7.5s7.5-3.357 7.5-7.5v-20.846c0-1.407 1.146-2.553 2.553-2.553h215.049c1.408 0 2.553 1.146 2.553 2.553v20.846c0 4.143 3.358 7.5 7.5 7.5s7.5-3.357 7.5-7.5v-20.846c0-9.679-7.875-17.553-17.553-17.553h-11.374v-27.197c0-4.715-.701-9.286-1.993-13.615h23.423c4.142 0 7.5-3.357 7.5-7.5v-16.54c0-7.162-3.045-13.821-8.219-18.474 8.423-31.435 8.422-64.321 0-95.763 5.175-4.651 8.22-11.308 8.22-18.464v-16.54c0-4.143-3.358-7.5-7.5-7.5h-16.54c-8.063 0-15.389 3.807-19.995 10.07-36.309-7.244-73.383-9.584-110.288-6.962-4.132.294-7.243 3.882-6.949 8.014.293 4.131 3.872 7.231 8.013 6.949 37.328-2.655 74.84-.037 111.493 7.783 3.587.769 7.199-1.175 8.543-4.587 1.5-3.808 5.104-6.268 9.182-6.268h9.04v9.04c0 3.686-2.048 7.042-5.344 8.758-3.191 1.662-4.752 5.355-3.722 8.802 9.548 31.92 9.548 65.659 0 97.571-1.032 3.446.53 7.141 3.722 8.802 3.295 1.716 5.343 5.075 5.343 8.768v9.04h-23.507c-6.996-9.273-17.354-15.955-29.504-18.147l-28.19-5.086-1.909-15.591c10.622-9.413 17.432-22.528 18.884-37.138l1.062-10.693c1.316-13.249-3.053-26.51-11.988-36.383-8.923-9.858-21.66-15.518-34.944-15.524-.008 0-.016 0-.023 0-13.277 0-26.001 5.646-34.912 15.49-8.931 9.868-13.29 23.13-11.959 36.385l1.074 10.694c1.464 14.587 8.27 27.689 18.873 37.108l-1.917 15.652-28.19 5.086c-12.151 2.192-22.509 8.874-29.504 18.147h-23.505v-9.04c0-3.692 2.047-7.052 5.343-8.768 3.192-1.661 4.754-5.355 3.722-8.802-9.548-31.912-9.548-65.651 0-97.571 1.031-3.446-.531-7.14-3.722-8.802-3.296-1.716-5.344-5.072-5.344-8.758v-9.039h9.04c4.078 0 7.682 2.46 9.182 6.268 1.343 3.411 4.956 5.349 8.54 4.588 6.907-1.471 13.959-2.779 20.961-3.889 4.091-.647 6.882-4.489 6.234-8.58-.648-4.092-4.489-6.89-8.581-6.234-5.446.862-10.921 1.841-16.341 2.92-4.603-6.265-11.93-10.073-19.994-10.073h-16.54c-4.142 0-7.5 3.357-7.5 7.5v16.54c0 7.156 3.044 13.812 8.22 18.464-8.423 31.441-8.423 64.328 0 95.763-5.174 4.652-8.219 11.312-8.219 18.474v16.54c-.001 4.142 3.357 7.5 7.499 7.5zm104.608-44.727c4.12 1.83 8.565 2.755 13.015 2.755 4.421 0 8.838-.914 12.934-2.721l1.444 11.793c-3.165 6.642-9.397 9.061-14.42 9.061s-11.256-2.419-14.42-9.061zm-17.939-47.765-1.074-10.694c-.908-9.044 2.064-18.091 8.156-24.82 6.162-6.809 14.609-10.557 23.789-10.557h.017c9.191.005 17.654 3.766 23.831 10.59 6.099 6.739 9.082 15.791 8.183 24.835l-1.062 10.693c-1.455 14.646-10.196 27.263-23.382 33.75-4.703 2.313-10.321 2.311-15.028-.009-13.201-6.504-21.959-19.135-23.43-33.788zm-23.495 74.106 28.103-5.07c5.599 9.036 15.357 14.617 26.303 14.617s20.704-5.581 26.303-14.617l28.103 5.07c15.497 2.796 26.744 16.254 26.744 32.001v27.197h-20.076v-19.106c0-4.142-3.358-7.5-7.5-7.5s-7.5 3.358-7.5 7.5v19.106h-92.148v-19.106c0-4.143-3.358-7.5-7.5-7.5s-7.5 3.358-7.5 7.5v19.106h-20.076v-27.197c0-15.747 11.248-29.205 26.744-32.001z"/><path d="m180.446 132.275c.579.137 1.158.202 1.729.202 3.399 0 6.479-2.327 7.293-5.779 5.463-23.155 5.598-47.663.391-70.877l-.373-1.66c-.907-4.041-4.917-6.58-8.96-5.676-4.042.907-6.583 4.919-5.676 8.961l.372 1.659c4.713 21.009 4.591 43.191-.354 64.147-.951 4.032 1.546 8.071 5.578 9.023z"/><path d="m337.15 57.446c.907-4.042-1.634-8.054-5.676-8.961-4.037-.903-8.053 1.635-8.96 5.676l-.373 1.661c-5.207 23.213-5.072 47.721.391 70.876.815 3.452 3.894 5.779 7.293 5.779.57 0 1.149-.065 1.729-.202 4.032-.951 6.529-4.99 5.578-9.022-4.945-20.956-5.067-43.139-.354-64.146z"/><path d="m35.936 275.233c.322 3.92 3.603 6.886 7.466 6.886.206 0 .414-.008.623-.025 4.128-.339 7.2-3.961 6.86-8.089-.489-5.951-.737-12.009-.737-18.004 0-50.723 17.545-99.197 49.65-137.961v6.837c0 4.143 3.358 7.5 7.5 7.5s7.5-3.357 7.5-7.5v-26.312c0-4.143-3.358-7.5-7.5-7.5h-26.572c-4.142 0-7.5 3.357-7.5 7.5s3.358 7.5 7.5 7.5h9.529c-35.617 41.841-55.107 94.642-55.107 149.935 0 6.405.265 12.875.788 19.233z"/></g></g><g/><g/><g/><g/><g/><g/><g/><g/><g/><g/><g/><g/><g/><g/><g/></svg>