<svg id="Layer_1" viewBox="0 0 128 128" xmlns="http://www.w3.org/2000/svg" data-name="Layer 1"><path d="m22 13.4619a2.00009 2.00009 0 0 0 2-2v-2.4619a2 2 0 0 0 -4 0v2.4619a2.00009 2.00009 0 0 0 2 2z" fill="#1c2a35" opacity=".3"/><path d="m22 35a2.00009 2.00009 0 0 0 2-2v-2.4619a2 2 0 0 0 -4 0v2.4619a2.00009 2.00009 0 0 0 2 2z" fill="#1c2a35" opacity=".3"/><path d="m29.53808 21a2.00009 2.00009 0 0 0 2 2h2.46192a2 2 0 0 0 0-4h-2.46192a2.00009 2.00009 0 0 0 -2 2z" fill="#1c2a35" opacity=".3"/><path d="m10 23h2.46188a2 2 0 0 0 0-4h-2.46188a2 2 0 0 0 0 4z" fill="#1c2a35" opacity=".3"/><path d="m27.3306 26.3311a2.00021 2.00021 0 0 0 .0005 2.8286l1.74018 1.7397a2.00012 2.00012 0 0 0 2.8281-2.8291l-1.7402-1.7397a2.00063 2.00063 0 0 0 -2.82858.0005z" fill="#1c2a35" opacity=".3"/><path d="m13.84078 15.6689a1.99978 1.99978 0 1 0 2.82812-2.8281l-1.74022-1.7402a1.99977 1.99977 0 0 0 -2.8281 2.8281z" fill="#1c2a35" opacity=".3"/><path d="m13.84028 26.3311-1.7397 1.7397a1.99977 1.99977 0 1 0 2.8281 2.8281l1.7398-1.7397a1.9998 1.9998 0 0 0 -2.8282-2.8281z" fill="#1c2a35" opacity=".3"/><path d="m28.74508 16.2549a1.99458 1.99458 0 0 0 1.4146-.586l1.7397-1.7402a2.00011 2.00011 0 1 0 -2.82908-2.8281l-1.7397 1.7402a2 2 0 0 0 1.41448 3.4141z" fill="#1c2a35" opacity=".3"/><path d="m22 23h4a2 2 0 0 0 0-4h-2v-2a2 2 0 0 0 -4 0v4a2.00009 2.00009 0 0 0 2 2z" fill="#1c2a35" opacity=".3"/><path d="m99.14938 14.6123a2.00009 2.00009 0 0 0 2-2v-5.6123a2 2 0 0 0 -4 0v5.6123a2.0001 2.0001 0 0 0 2 2z" fill="#1c2a35" opacity=".3"/><path d="m81.4458 20.377a2.00006 2.00006 0 0 0 2.7256-2.9278l-4.26172-3.9682a2 2 0 1 0 -2.7256 2.9277z" fill="#1c2a35" opacity=".3"/><path d="m115.4897 20.9121a1.99293 1.99293 0 0 0 1.3619-.5356l4.2636-3.9673a2 2 0 1 0 -2.7246-2.9287l-4.2636 3.9673a2 2 0 0 0 1.3627 3.4643z" fill="#1c2a35" opacity=".3"/><path d="m88.48488 15.0576a1.99988 1.99988 0 0 0 3.65522-1.624l-2.30472-5.187a1.99986 1.99986 0 1 0 -3.65518 1.624z" fill="#1c2a35" opacity=".3"/><path d="m107.2207 16.0913a1.99793 1.99793 0 0 0 2.6426-1.0078l2.3203-5.1812a1.99985 1.99985 0 0 0 -3.6504-1.6347l-2.3203 5.1811a1.99942 1.99942 0 0 0 1.0078 2.6426z" fill="#1c2a35" opacity=".3"/><path d="m118.5815 26.5005a1.99744 1.99744 0 0 0 2.5918 1.1318l5.5567-2.1787a1.9998 1.9998 0 0 0 -1.46-3.7236l-5.5566 2.1787a1.99954 1.99954 0 0 0 -1.1319 2.5918z" fill="#1c2a35" opacity=".3"/><path d="m71.31838 26.1538 5.6181 2.0366a2.00009 2.00009 0 0 0 1.36332-3.7607l-5.61822-2.0366a2.00007 2.00007 0 1 0 -1.3632 3.7607z" fill="#1c2a35" opacity=".3"/><path d="m112 35a2 2 0 0 0 4 0 17.00813 17.00813 0 0 0 -34 0 2 2 0 0 0 4 0 13.01073 13.01073 0 0 1 26 0z" fill="#1c2a35" opacity=".3"/><path d="m92.375 34.5776a2 2 0 0 0 4 0 2.63014 2.63014 0 0 1 5.25 0 2 2 0 0 0 4 0 6.627 6.627 0 0 0 -13.25 0z" fill="#1c2a35" opacity=".3"/><path d="m124 87v24h-120v-24a3.99887 3.99887 0 0 1 4-4h112a3.99887 3.99887 0 0 1 4 4z" fill="#ffdb80"/><path d="m48 93.5a2.00009 2.00009 0 0 0 -2 2v7a2 2 0 0 0 4 0v-7a2.00009 2.00009 0 0 0 -2-2z" fill="#ad9359" opacity=".45"/><path d="m58 93.5a2.00009 2.00009 0 0 0 -2 2v7a2 2 0 0 0 4 0v-7a2.00009 2.00009 0 0 0 -2-2z" fill="#ad9359" opacity=".45"/><path d="m68 93.5a2.00009 2.00009 0 0 0 -2 2v7a2 2 0 0 0 4 0v-7a2.00009 2.00009 0 0 0 -2-2z" fill="#ad9359" opacity=".45"/><path d="m78 93.5a2.00009 2.00009 0 0 0 -2 2v7a2 2 0 0 0 4 0v-7a2.00009 2.00009 0 0 0 -2-2z" fill="#ad9359" opacity=".45"/><path d="m88 93.5a2.00009 2.00009 0 0 0 -2 2v7a2 2 0 0 0 4 0v-7a2.00009 2.00009 0 0 0 -2-2z" fill="#ad9359" opacity=".45"/><path d="m20 93.5a2.00009 2.00009 0 0 0 -2 2v7a2 2 0 0 0 4 0v-7a2.00009 2.00009 0 0 0 -2-2z" fill="#ad9359" opacity=".45"/><path d="m30 93.5a2.00009 2.00009 0 0 0 -2 2v7a2 2 0 0 0 4 0v-7a2.00009 2.00009 0 0 0 -2-2z" fill="#ad9359" opacity=".45"/><path d="m40 93.5a2.00009 2.00009 0 0 0 -2 2v7a2 2 0 0 0 4 0v-7a2.00009 2.00009 0 0 0 -2-2z" fill="#ad9359" opacity=".45"/><path d="m98 93.5a2.00009 2.00009 0 0 0 -2 2v7a2 2 0 0 0 4 0v-7a2.00009 2.00009 0 0 0 -2-2z" fill="#ad9359" opacity=".45"/><path d="m108 93.5a2.00009 2.00009 0 0 0 -2 2v7a2 2 0 0 0 4 0v-7a2.00009 2.00009 0 0 0 -2-2z" fill="#ad9359" opacity=".45"/><circle cx="12" cy="99" fill="#ad9359" opacity=".45" r="2"/><circle cx="116" cy="99" fill="#ad9359" opacity=".45" r="2"/><path d="m11.231 80.25v-29.61732s-.106-6.13268 7.894-5.38268 92.125 0 92.125 0 6.125 2.25 5.75 10 0 26.625 0 26.625z" fill="#ffdb80"/><path d="m34.63184 68.22852a16.03092 16.03092 0 0 1 -3.29089-4.44086l-5.09095.21234-3.375-1.375-2.875.5625.68748 3.0625v10.8125l-1.06248 3.5625 22.375.09772-.89465-6.29034c-4.19825-4.01905-6.37317-6.1031-6.47351-6.20386z" fill="#fc785e"/><path d="m95.56433 64.625a18.297 18.297 0 0 1 -1.89343 2.32813l-6.76282 7.431-.90808 8.11587 20.75-1 1.875-16.875z" fill="#fc785e"/><g fill="#2d4356"><path d="m22 11.4619a2.00009 2.00009 0 0 0 2-2v-2.4619a2 2 0 0 0 -4 0v2.4619a2.00009 2.00009 0 0 0 2 2z"/><path d="m22 33a2.00009 2.00009 0 0 0 2-2v-2.4619a2 2 0 0 0 -4 0v2.4619a2.00009 2.00009 0 0 0 2 2z"/><path d="m29.53808 19a2.00009 2.00009 0 0 0 2 2h2.46192a2 2 0 0 0 0-4h-2.46192a2.00009 2.00009 0 0 0 -2 2z"/><path d="m10 21h2.46188a2 2 0 0 0 0-4h-2.46188a2 2 0 0 0 0 4z"/><path d="m27.3306 24.3311a2.00021 2.00021 0 0 0 .0005 2.8286l1.74018 1.7397a2.00012 2.00012 0 0 0 2.8281-2.8291l-1.7402-1.7397a2.00063 2.00063 0 0 0 -2.82858.0005z"/><path d="m13.84078 13.6689a1.99978 1.99978 0 1 0 2.82812-2.8281l-1.74022-1.7402a1.99977 1.99977 0 0 0 -2.8281 2.8281z"/><path d="m13.84028 24.3311-1.7397 1.7397a1.99977 1.99977 0 1 0 2.8281 2.8281l1.7398-1.7397a1.9998 1.9998 0 0 0 -2.8282-2.8281z"/><path d="m28.74508 14.2549a1.99458 1.99458 0 0 0 1.4146-.586l1.7397-1.7402a2.00011 2.00011 0 1 0 -2.82908-2.8281l-1.7397 1.7402a2 2 0 0 0 1.41448 3.4141z"/><path d="m22 21h4a2 2 0 0 0 0-4h-2v-2a2 2 0 0 0 -4 0v4a2.00009 2.00009 0 0 0 2 2z"/><path d="m99.14938 12.6123a2.00009 2.00009 0 0 0 2-2v-5.6123a2 2 0 0 0 -4 0v5.6123a2.0001 2.0001 0 0 0 2 2z"/><path d="m81.4458 18.377a2.00006 2.00006 0 0 0 2.7256-2.9278l-4.26172-3.9682a2 2 0 1 0 -2.7256 2.9277z"/><path d="m115.4897 18.9121a1.99293 1.99293 0 0 0 1.3619-.5356l4.2636-3.9673a2 2 0 1 0 -2.7246-2.9287l-4.2636 3.9673a2 2 0 0 0 1.3627 3.4643z"/><path d="m88.48488 13.0576a1.99988 1.99988 0 0 0 3.65522-1.624l-2.30472-5.187a1.99986 1.99986 0 1 0 -3.65518 1.624z"/><path d="m107.2207 14.0913a1.99793 1.99793 0 0 0 2.6426-1.0078l2.3203-5.1812a1.99985 1.99985 0 0 0 -3.6504-1.6347l-2.3203 5.1811a1.99942 1.99942 0 0 0 1.0078 2.6426z"/><path d="m118.5815 24.5005a1.99744 1.99744 0 0 0 2.5918 1.1318l5.5567-2.1787a1.9998 1.9998 0 0 0 -1.46-3.7236l-5.5566 2.1787a1.99954 1.99954 0 0 0 -1.1319 2.5918z"/><path d="m71.31838 24.1538 5.6181 2.0366a2.00009 2.00009 0 0 0 1.36332-3.7607l-5.61822-2.0366a2.00007 2.00007 0 1 0 -1.3632 3.7607z"/><path d="m112 33a2 2 0 0 0 4 0 17.00813 17.00813 0 0 0 -34 0 2 2 0 0 0 4 0 13.01073 13.01073 0 0 1 26 0z"/><path d="m92.375 32.5776a2 2 0 0 0 4 0 2.63014 2.63014 0 0 1 5.25 0 2 2 0 0 0 4 0 6.627 6.627 0 0 0 -13.25 0z"/><path d="m64 35a11 11 0 1 0 11 11 11.00657 11.00657 0 0 0 -11-11zm0 18a7 7 0 1 1 7-7 7.00771 7.00771 0 0 1 -7 7z"/></g><circle cx="64" cy="46" fill="#e1ebf4" r="7"/><path d="m120 79h-1v-27a7.97442 7.97442 0 0 0 -7.95-8h-32.2a13.40618 13.40618 0 0 1 0 4h32.2a3.97567 3.97567 0 0 1 3.95 4v27h-5.22a4.14463 4.14463 0 0 1 -.73-1.72 73.85652 73.85652 0 0 1 .06-9.3 3.77611 3.77611 0 0 1 .86-1.6l.2-.27a3.16374 3.16374 0 0 0 .43-3.39 3.63953 3.63953 0 0 0 -3.72-1.7l-.23.02-.22.08a22.34136 22.34136 0 0 1 -4.33.91h-5.14a15.71809 15.71809 0 0 1 -2.47 3.99l7.68.01.14-.01a22.005 22.005 0 0 0 3.5-.58 6.049 6.049 0 0 0 -.64 1.87 70.94533 70.94533 0 0 0 -.1 10.37 6.70419 6.70419 0 0 0 .28 1.32h-16.7a6.70419 6.70419 0 0 0 .28-1.32c.09-.84.15-3.3.14-5.67l-4.07 4.47c-.01.33-.03.61-.05.8a4.14463 4.14463 0 0 1 -.73 1.72h-4.77l-.33-1.61a19.35593 19.35593 0 0 1 2.73-3.4l.07-.07.07-.08 8.76-9.62c3.85-3.99 4.34-8.64 1.26-11.84a7.43223 7.43223 0 0 0 -5.47-2.38c-3.37 0-6.15 2.19-7.50995 3.5-.02.02-.04.04-7.61 7.5h-4.36005s-2.5 2.4-3.13 3c-.62-.6-3.07-3-3.07-3h-4.6l-7.54-6.55c-1.68-1.6-4.3-3.47-7.34-3.47a7.17688 7.17688 0 0 0 -4.83 1.87 7.28733 7.28733 0 0 0 -2.55 5.37 9.99977 9.99977 0 0 0 3.46 7.18c.15.15 9.02 8.64 9.02 8.64a19.30414 19.30414 0 0 1 2.89 3.39l-.32 1.57h-5.27a4.14463 4.14463 0 0 1 -.73-1.72c-.02-.24-.05-.61-.06-1.05-.9-.85-2.49-2.38-4.06-3.88-.01 2.26.06 4.52.14 5.33a6.70419 6.70419 0 0 0 .28 1.32h-16.7a6.70419 6.70419 0 0 0 .28-1.32 70.95522 70.95522 0 0 0 -.1-10.37 6.049 6.049 0 0 0 -.64-1.87 22.005 22.005 0 0 0 3.5.58l7.01.01a14.47381 14.47381 0 0 1 -2.09-4h-4.71a22.13909 22.13909 0 0 1 -4.33-.91l-.22-.08-.23-.02a3.63953 3.63953 0 0 0 -3.72 1.7 3.16374 3.16374 0 0 0 .43 3.39l.2.27a3.77611 3.77611 0 0 1 .86 1.6 73.86972 73.86972 0 0 1 .06 9.3 4.14463 4.14463 0 0 1 -.73 1.72h-5.22v-27a3.97567 3.97567 0 0 1 3.95-4h32.2a13.40618 13.40618 0 0 1 0-4h-32.2a7.97441 7.97441 0 0 0 -7.95 8v27h-1a7.99778 7.99778 0 0 0 -8 8v28h6v4c0 3.31 3.27 6 7.31 6h1.38c4.04 0 7.31-2.69 7.31-6v-4h84v4c0 3.31 3.27 6 7.31 6h1.38c4.04 0 7.31-2.69 7.31-6v-4h6v-28a7.99778 7.99778 0 0 0 -8-8zm-70.75-7.85s-8.98-8.6-9.02-8.64c-1.88-1.8-3.38-4.56-1.01-6.67a3.144 3.144 0 0 1 2.16-.86c1.68 0 3.42 1.25 4.64 2.43l8.74 7.59h4.46s4.49005 4.43 4.75 4.43c.05-.01 1.23-1.11 2.39-2.22s2.31-2.21 2.31-2.21h4.39s8.72-8.59 8.74-8.62a7.54587 7.54587 0 0 1 4.74-2.38 3.49273 3.49273 0 0 1 2.59 1.15c1.91 1.99005.3 4.68-1.3 6.33l-8.8 9.67s-3.78 3.75-4.03 6.02l.37 1.83h-22.24l.37-1.83c-.25-2.27-4.25-6.02-4.25-6.02zm-31.25 47.85c0 .92-1.45 2-3.31 2h-1.38c-1.86 0-3.31-1.08-3.31-2v-4h8zm100 0c0 .92-1.45 2-3.31 2h-1.38c-1.86 0-3.31-1.08-3.31-2v-4h8zm6-8h-120v-24a3.99887 3.99887 0 0 1 4-4h112a3.99887 3.99887 0 0 1 4 4z" fill="#2d4356"/><path d="m87.83 61.48-8.8 9.67s-3.78 3.75-4.03 6.02l.37 1.83h-22.24l.37-1.83c-.25-2.27-4.25-6.02-4.25-6.02s-8.98-8.6-9.02-8.64c-1.88-1.8-3.38-4.56-1.01-6.67a3.144 3.144 0 0 1 2.16-.86c1.68 0 3.42 1.25 4.64 2.43l8.74 7.59h4.46s4.49005 4.43 4.75 4.43c.05-.01 1.23-1.11 2.39-2.22s2.31-2.21 2.31-2.21h4.39s8.72-8.59 8.74-8.62a7.54587 7.54587 0 0 1 4.74-2.38 3.49273 3.49273 0 0 1 2.59 1.15c1.91 1.99.3 4.68-1.3 6.33z" fill="#fc785e"/><path d="m118 115v4c0 .92-1.45 2-3.31 2h-1.38c-1.86 0-3.31-1.08-3.31-2v-4z" fill="#d68751"/><path d="m18 115v4c0 .92-1.45 2-3.31 2h-1.38c-1.86 0-3.31-1.08-3.31-2v-4z" fill="#d68751"/><path d="m48 91.5a2.00009 2.00009 0 0 0 -2 2v7a2 2 0 0 0 4 0v-7a2.00009 2.00009 0 0 0 -2-2z" fill="#2d4356"/><path d="m58 91.5a2.00009 2.00009 0 0 0 -2 2v7a2 2 0 0 0 4 0v-7a2.00009 2.00009 0 0 0 -2-2z" fill="#2d4356"/><path d="m68 91.5a2.00009 2.00009 0 0 0 -2 2v7a2 2 0 0 0 4 0v-7a2.00009 2.00009 0 0 0 -2-2z" fill="#2d4356"/><path d="m78 91.5a2.00009 2.00009 0 0 0 -2 2v7a2 2 0 0 0 4 0v-7a2.00009 2.00009 0 0 0 -2-2z" fill="#2d4356"/><path d="m88 91.5a2.00009 2.00009 0 0 0 -2 2v7a2 2 0 0 0 4 0v-7a2.00009 2.00009 0 0 0 -2-2z" fill="#2d4356"/><path d="m20 91.5a2.00009 2.00009 0 0 0 -2 2v7a2 2 0 0 0 4 0v-7a2.00009 2.00009 0 0 0 -2-2z" fill="#2d4356"/><path d="m30 91.5a2.00009 2.00009 0 0 0 -2 2v7a2 2 0 0 0 4 0v-7a2.00009 2.00009 0 0 0 -2-2z" fill="#2d4356"/><path d="m40 91.5a2.00009 2.00009 0 0 0 -2 2v7a2 2 0 0 0 4 0v-7a2.00009 2.00009 0 0 0 -2-2z" fill="#2d4356"/><path d="m98 91.5a2.00009 2.00009 0 0 0 -2 2v7a2 2 0 0 0 4 0v-7a2.00009 2.00009 0 0 0 -2-2z" fill="#2d4356"/><path d="m108 91.5a2.00009 2.00009 0 0 0 -2 2v7a2 2 0 0 0 4 0v-7a2.00009 2.00009 0 0 0 -2-2z" fill="#2d4356"/><circle cx="12" cy="97" fill="#2d4356" r="2"/><circle cx="116" cy="97" fill="#2d4356" r="2"/><path d="m49.15 50h-32.2a3.97567 3.97567 0 0 0 -3.95 4v-2a3.97567 3.97567 0 0 1 3.95-4h32.05a14.708 14.708 0 0 0 .15 2z" fill="#f9edd2" opacity=".5"/><path d="m118 117v2c0 .92-1.45 2-3.31 2h-1.38c-1.86 0-3.31-1.08-3.31-2v-2c0 .92 1.45 2 3.31 2h1.38c1.86 0 3.31-1.08 3.31-2z" fill="#72492d" opacity=".4"/><path d="m115 52v2a3.97563 3.97563 0 0 0 -3.95-4h-32.2a14.71781 14.71781 0 0 0 .15-2h32.05a3.97563 3.97563 0 0 1 3.95 4z" fill="#f9edd2" opacity=".5"/><path d="m79.45 77h5.52a2.1558 2.1558 0 0 1 -.02.28 4.14463 4.14463 0 0 1 -.73 1.72h-4.77l-.33-1.61a4.25965 4.25965 0 0 1 .31-.49z" fill="#ad9359" opacity=".45"/><path d="m115 77v2h-5.22a4.14463 4.14463 0 0 1 -.73-1.72 2.15579 2.15579 0 0 1 -.02-.28z" fill="#ad9359" opacity=".45"/><path d="m105.35 79h-16.7a6.70419 6.70419 0 0 0 .28-1.32c.02-.17.03-.4.05-.68h16.04c.02.28.03.51.05.68a6.70418 6.70418 0 0 0 .28 1.32z" fill="#a54b3f" opacity=".5"/><path d="m49.37 77.43-.32 1.57h-5.27a4.14463 4.14463 0 0 1 -.73-1.72c-.01-.08-.01-.17-.02-.28h6.02l.01-.04c.12.17.23.33.31.47z" fill="#ad9359" opacity=".45"/><path d="m18.95 77.28a4.14528 4.14528 0 0 1 -.73 1.72h-5.22v-2h5.22a4.14528 4.14528 0 0 0 .73-1.72c.06-.59.1-1.93.11-3.41.02 2.17-.03 4.56-.11 5.41z" fill="#ad9359" opacity=".45"/><path d="m39.35 79h-16.7a6.70419 6.70419 0 0 0 .28-1.32c.02-.17.03-.4.05-.68h16.04c.02.28.03.51.05.68a6.70418 6.70418 0 0 0 .28 1.32z" fill="#a54b3f" opacity=".5"/><path d="m89.84 58.28a3.23268 3.23268 0 0 0 -.71-1.13 3.4927 3.4927 0 0 0 -2.59-1.15 7.54587 7.54587 0 0 0 -4.74 2.38c-.02.03-8.74 8.62-8.74 8.62h-4.39s-1.15 1.1-2.31 2.21-2.34 2.21-2.39 2.22c-.26 0-4.75-4.43-4.75-4.43h-4.46l-8.74-7.59c-1.22-1.18-2.96-2.43-4.64-2.43a3.14376 3.14376 0 0 0 -2.16.86 3.57309 3.57309 0 0 0 -1.06 1.54 3.24827 3.24827 0 0 1 1.06-3.54 3.14376 3.14376 0 0 1 2.16-.86c1.68 0 3.42 1.25 4.64 2.43l8.74 7.59h4.46s4.49 4.43 4.75 4.43c.05-.01 1.23-1.11 2.39-2.22s2.31-2.21 2.31-2.21h4.39s8.72-8.59 8.74-8.62a7.54587 7.54587 0 0 1 4.74-2.38 3.4927 3.4927 0 0 1 2.59 1.15 3.048 3.048 0 0 1 .71 3.13z" fill="#f9dbd7" opacity=".3"/><path d="m53.13 79 .37-1.83c-.01-.05-.01-.11-.02-.17h21.54c-.01.06-.01.12-.02.17l.37 1.83z" fill="#a54b3f" opacity=".5"/><path d="m124 87v2a3.99887 3.99887 0 0 0 -4-4h-112a3.99891 3.99891 0 0 0 -4 4v-2a3.99891 3.99891 0 0 1 4-4h112a3.99887 3.99887 0 0 1 4 4z" fill="#f9edd2" opacity=".5"/><path d="m4 109h120v2h-120z" fill="#ad9359" opacity=".45"/><path d="m18 117v2c0 .92-1.45 2-3.31 2h-1.38c-1.86 0-3.31-1.08-3.31-2v-2c0 .92 1.45 2 3.31 2h1.38c1.86 0 3.31-1.08 3.31-2z" fill="#72492d" opacity=".4"/><path d="m71 46a7 7 0 0 1 -14 0 5.54616 5.54616 0 0 1 .08-1 6.99055 6.99055 0 0 0 13.84 0 5.54614 5.54614 0 0 1 .08 1z" fill="#9fa5aa" opacity=".5"/><path d="m71 46a5.547 5.547 0 0 1 -.08 1 6.99055 6.99055 0 0 0 -13.84 0 5.54706 5.54706 0 0 1 -.08-1 7 7 0 0 1 14 0z" fill="#fff" opacity=".5"/></svg>