<svg id="Layer_1" enable-background="new 0 0 512 512" viewBox="0 0 512 512" xmlns="http://www.w3.org/2000/svg"><g><g><path clip-rule="evenodd" d="m57.75 62.161h301.945v383.744h-301.945z" fill="#ffecc7" fill-rule="evenodd"/></g><g><path clip-rule="evenodd" d="m359.695 188.651v257.254h-53.013v-21.063c-47.74-17.215-80.517-62.846-80.517-114.747 0-67.378 54.609-121.986 121.958-121.986 3.905 0 7.752.2 11.572.542z" fill="#f7d9ac" fill-rule="evenodd"/></g><g><path clip-rule="evenodd" d="m123.588 34.23h54.894c.513-15.875 13.567-28.587 29.585-28.587 15.989 0 29.043 12.711 29.556 28.587h54.894v62.532h-168.929z" fill="#ffc328" fill-rule="evenodd"/></g><g><path clip-rule="evenodd" d="m102.583 139.885c14.137-11.914 35.228-10.118 47.141 3.99 11.914 14.108 10.118 35.199-3.99 47.113-14.137 11.913-35.228 10.118-47.141-3.99-11.914-14.108-10.118-35.2 3.99-47.113z" fill="#31a7fb" fill-rule="evenodd"/></g><g><path clip-rule="evenodd" d="m102.583 237.189c14.137-11.914 35.228-10.118 47.141 4.018 11.914 14.108 10.118 35.2-3.99 47.113-14.137 11.913-35.228 10.118-47.141-3.99-11.914-14.108-10.118-35.228 3.99-47.141z" fill="#31a7fb" fill-rule="evenodd"/></g><g><path clip-rule="evenodd" d="m102.583 334.521c14.137-11.914 35.228-10.118 47.141 3.99 11.914 14.137 10.118 35.228-3.99 47.142-14.137 11.913-35.228 10.118-47.141-3.99-11.914-14.137-10.118-35.228 3.99-47.142z" fill="#31a7fb" fill-rule="evenodd"/></g><g><path clip-rule="evenodd" d="m340.314 363.85h7.353c7.866 0 14.279 6.413 14.279 14.251v114.006c0 7.838-6.413 14.251-14.279 14.251h-7.353c-7.838 0-14.251-6.413-14.251-14.251v-114.007c0-7.838 6.413-14.25 14.251-14.25z" fill="#fd4755" fill-rule="evenodd"/></g><g><path clip-rule="evenodd" d="m348.123 207.49c56.661 0 102.605 45.944 102.605 102.605s-45.944 102.577-102.605 102.577-102.577-45.916-102.577-102.577c0-56.66 45.916-102.605 102.577-102.605z" fill="#365e7d" fill-rule="evenodd"/></g><g><path clip-rule="evenodd" d="m348.123 237.616c40.016 0 72.479 32.435 72.479 72.479 0 40.016-32.463 72.451-72.479 72.451s-72.451-32.435-72.451-72.451c0-40.044 32.435-72.479 72.451-72.479z" fill="#c7eafb" fill-rule="evenodd"/></g><g><path clip-rule="evenodd" d="m348.123 237.616c40.016 0 72.479 32.435 72.479 72.479 0 40.016-32.463 72.451-72.479 72.451-2.138 0-4.275-.085-6.413-.285 37.023-3.249 66.066-34.316 66.066-72.165 0-37.879-29.043-68.945-66.066-72.194 2.138-.171 4.275-.286 6.413-.286z" fill="#abe1fa" fill-rule="evenodd"/></g></g><path d="m178.322 155.248c0-3.852 3.123-6.974 6.974-6.974h143.842c3.852 0 6.974 3.123 6.974 6.974 0 3.852-3.122 6.974-6.974 6.974h-143.842c-3.852 0-6.974-3.122-6.974-6.974zm6.974 28.704h82.955c3.852 0 6.974-3.123 6.974-6.974 0-3.852-3.123-6.974-6.974-6.974h-82.955c-3.852 0-6.974 3.123-6.974 6.974s3.122 6.974 6.974 6.974zm-27.718-43.757c6.922 8.197 10.235 18.604 9.328 29.305-.907 10.696-5.92 20.399-14.117 27.32-7.537 6.336-16.737 9.431-25.884 9.431-11.45 0-22.818-4.847-30.746-14.254-6.917-8.192-10.229-18.593-9.322-29.285.906-10.687 5.92-20.384 14.117-27.306.001-.001.003-.003.005-.004 16.935-14.273 42.334-12.123 56.619 4.793zm-10.657 9c-9.326-11.044-25.909-12.448-36.969-3.132-5.353 4.519-8.626 10.851-9.218 17.828s1.569 13.764 6.085 19.112c9.315 11.054 25.902 12.465 36.98 3.151 5.34-4.51 8.614-10.846 9.206-17.832.593-6.986-1.568-13.779-6.084-19.127zm-4.274 2.898c-2.963-2.463-7.36-2.059-9.822.904l-9 10.824-2.137-2.58c-2.456-2.967-6.852-3.379-9.82-.924-2.967 2.457-3.38 6.853-.924 9.82l7.498 9.054c1.324 1.598 3.29 2.524 5.365 2.526h.007c2.072 0 4.038-.922 5.363-2.515l14.373-17.287c2.463-2.962 2.059-7.36-.903-9.822zm14.931 84.723c6.922 8.197 10.235 18.599 9.328 29.29-.907 10.686-5.92 20.384-14.117 27.306-7.531 6.346-16.735 9.446-25.889 9.447-11.439 0-22.802-4.84-30.736-14.237-6.923-8.198-10.236-18.606-9.327-29.306.908-10.695 5.924-20.389 14.123-27.295 16.933-14.272 42.334-12.12 56.618 4.795zm-10.657 9c-5.181-6.135-12.602-9.295-20.071-9.295-5.978 0-11.986 2.024-16.903 6.168l-.001.001c-5.347 4.505-8.618 10.829-9.211 17.808-.594 6.985 1.567 13.777 6.085 19.127 9.326 11.044 25.913 12.447 36.974 3.127 5.347-4.516 8.62-10.847 9.213-17.824.591-6.977-1.57-13.765-6.086-19.112zm-4.274 2.897c-2.963-2.463-7.36-2.057-9.822.904l-9 10.824-2.137-2.58c-2.456-2.966-6.852-3.38-9.82-.924-2.967 2.457-3.38 6.853-.924 9.82l7.498 9.054c1.324 1.599 3.29 2.525 5.365 2.526h.007c2.072 0 4.038-.922 5.363-2.516l14.373-17.287c2.463-2.961 2.059-7.358-.903-9.821zm14.936 84.729c14.279 16.91 12.13 42.3-4.794 56.592-7.531 6.345-16.734 9.446-25.888 9.446-11.439 0-22.803-4.84-30.737-14.237-14.277-16.941-12.126-42.34 4.79-56.625.001-.001.003-.003.005-.004 16.945-14.279 42.346-12.113 56.624 4.828zm-10.662 8.993c-4.523-5.367-10.855-8.647-17.834-9.241-6.976-.601-13.772 1.565-19.134 6.082-11.046 9.327-12.449 25.913-3.128 36.973 9.322 11.04 25.91 12.441 36.969 3.123 11.044-9.326 12.449-25.897 3.127-36.937zm-4.638 2.903c-2.96-2.465-7.358-2.064-9.822.896l-9.017 10.827-2.166-2.598c-2.468-2.958-6.865-3.358-9.823-.89-2.958 2.466-3.356 6.864-.89 9.822l7.526 9.026c1.325 1.59 3.287 2.508 5.357 2.508h.001c2.07-.001 4.033-.92 5.358-2.511l14.373-17.258c2.464-2.96 2.063-7.357-.897-9.822zm227.611 71.208v73.833c0 11.646-9.487 21.12-21.149 21.12h-7.3c-11.646 0-21.121-9.474-21.121-21.12v-38.889h-259.376c-3.852 0-6.974-3.122-6.974-6.974v-380.937c0-3.852 3.123-6.974 6.974-6.974h58.383v-20.753c0-3.852 3.123-6.974 6.974-6.974h48.362c3.596-16.363 18.063-28.378 35.47-28.378 17.421 0 31.899 12.015 35.498 28.378h48.362c3.852 0 6.974 3.123 6.974 6.974v20.753h59.713c3.852 0 6.974 3.123 6.974 6.974v138.865c51.246 8.794 90.368 53.539 90.368 107.256 0 52.933-37.988 97.152-88.132 106.846zm-236.615-325.593h153.744v-48.127h-47.518c-3.764 0-6.849-2.987-6.971-6.749-.392-12.128-10.23-21.629-22.397-21.629-12.152 0-21.978 9.501-22.369 21.629-.122 3.762-3.207 6.749-6.971 6.749h-47.518zm187.045 346.589v-22.91c-22.593-6.227-42.264-19.572-56.438-37.467h-78.59c-3.852 0-6.974-3.122-6.974-6.974s3.123-6.974 6.974-6.974h69.194c-1.436-2.532-2.772-5.128-4.005-7.781h-65.189c-3.852 0-6.974-3.122-6.974-6.974s3.123-6.974 6.974-6.974h59.839c-3.077-10.06-4.739-20.732-4.739-31.787 0-10.096 1.387-19.873 3.971-29.156h-59.071c-3.852 0-6.974-3.123-6.974-6.975s3.123-6.974 6.974-6.974h64.008c1.143-2.64 2.388-5.225 3.729-7.752h-67.737c-3.852 0-6.974-3.123-6.974-6.974 0-3.852 3.123-6.974 6.974-6.974h76.548c19.846-26.696 51.613-44.024 87.353-44.024 1.512 0 3.016.039 4.513.101v-130.42h-52.739v27.374c0 3.852-3.123 6.974-6.974 6.974h-167.692c-3.852 0-6.974-3.123-6.974-6.974v-27.374h-51.409v366.989zm35.621-19.228c-2.233.137-4.481.215-6.748.215-5.063 0-10.044-.356-14.925-1.029v72.879c0 3.954 3.218 7.172 7.172 7.172h7.3c3.971 0 7.201-3.218 7.201-7.172zm88.133-108.614c0-52.317-42.564-94.881-94.881-94.881-52.302 0-94.853 42.564-94.853 94.881s42.551 94.88 94.853 94.88c4.358 0 8.646-.302 12.849-.873.061-.008.12-.02.182-.026 46.173-6.37 81.85-46.084 81.85-93.981zm-15.957 0c0 43.503-35.405 78.895-78.923 78.895-43.503 0-78.895-35.392-78.895-78.895 0-43.518 35.392-78.923 78.895-78.923 43.518 0 78.923 35.405 78.923 78.923zm-13.949 0c0-35.827-29.148-64.975-64.975-64.975-35.812 0-64.947 29.148-64.947 64.975 0 35.811 29.135 64.947 64.947 64.947 35.828 0 64.975-29.135 64.975-64.947zm-27.383-30.626c-2.961-2.465-7.359-2.061-9.822.901l-36.69 44.102-18.851-22.353c-2.483-2.944-6.883-3.318-9.828-.835-2.944 2.484-3.318 6.883-.835 9.828l24.219 28.718c1.325 1.571 3.276 2.478 5.331 2.478h.023c2.063-.007 4.018-.927 5.338-2.514l42.015-50.503c2.465-2.962 2.061-7.359-.9-9.822z"/></svg>