<svg height="512" viewBox="0 0 512 512" width="512" xmlns="http://www.w3.org/2000/svg"><g id="FILLED_OUTLINE" data-name="FILLED OUTLINE"><circle cx="408" cy="104" fill="#fcc16b" r="80"/><path d="m424 176a24.819 24.819 0 0 1 4.64917-28.64917l4.9635-4.9635a24.819 24.819 0 0 1 31.31677-3.10095l14.3147 9.54309a24.8193 24.8193 0 0 1 9.27686 29.86828l-2.2804 5.70069a24.819 24.819 0 0 1 -23.04382 15.60156h-7.19678l-32 32-24-32z" fill="#f9caca"/><path d="m422.11145 336h-332.2229a16 16 0 0 0 -14.31091 23.1554l4.42236 8.8446v48h352v-48l4.42236-8.8446a16 16 0 0 0 -14.31091-23.1554z" fill="#dfdfdf"/><path d="m88 176a24.819 24.819 0 0 0 -4.64917-28.64917l-4.9635-4.9635a24.819 24.819 0 0 0 -31.31677-3.10095l-14.3147 9.54309a24.8193 24.8193 0 0 0 -9.27686 29.86828l2.2804 5.70069a24.819 24.819 0 0 0 23.04382 15.60156h7.19678l32 32 24-32z" fill="#f9caca"/><path d="m216 208v64l40 8 40-8v-64z" fill="#f9b7b7"/><path d="m400 184-64 72-80 24-80-24-64-72-56 48 104 112v72h192v-72l104-112z" fill="#dbb5a9"/><path d="m176 64v78.55725a80 80 0 0 0 44.2229 71.5542l14.31079 7.1554a48.00069 48.00069 0 0 0 42.93262 0l14.31079-7.1554a80 80 0 0 0 44.2229-71.5542v-78.55725z" fill="#f9caca"/><path d="m201.94113 86.05887-25.94113 25.94113v-52a36 36 0 0 1 36-36h88a36 36 0 0 1 36 36v12h-100.11775a48 48 0 0 0 -33.94112 14.05887z" fill="#9e694c"/><path d="m472 416h-432a16 16 0 0 0 -16 16v64h464v-64a16 16 0 0 0 -16-16z" fill="#bebebe"/><path d="m24 432v32h464v-32a16 16 0 0 0 -16-16h-432a16 16 0 0 0 -16 16z" fill="#8c8c8c"/><g fill="#fda5a3"><path d="m216 104h32v16h-32z"/><path d="m264 104h32v16h-32z"/><circle cx="256" cy="168" r="24"/></g><path d="m416 128h-16v-27.314l42.343-42.343 11.314 11.314-37.657 37.657z" fill="#cc8221"/><path d="m144 128a16 16 0 0 0 16 16h16v-32h-16a15.99993 15.99993 0 0 0 -16 16z" fill="#f9b7b7"/><path d="m352 112h-16v32h16a16 16 0 0 0 16-16 15.99993 15.99993 0 0 0 -16-16z" fill="#f9b7b7"/><path d="m248 280h16v64h-16z" fill="#c49178"/><path d="m216 296h16v16h-16z" fill="#c49178"/><path d="m216 328h16v16h-16z" fill="#c49178"/><path d="m216 104h32v16h-32z"/><path d="m264 104h32v16h-32z"/><path d="m224 168a32 32 0 1 0 32-32 32.036 32.036 0 0 0 -32 32zm32-16a16 16 0 1 1 -16 16 16.01833 16.01833 0 0 1 16-16z"/><path d="m416 107.314 37.657-37.657-11.314-11.314-42.343 42.343v27.314h16z"/><path d="m472 408h-32v-38.11133l3.57764-7.15576a23.99979 23.99979 0 0 0 -21.46631-34.73291h-44.337l89.75257-96.65674-16.99207-14.56457 8.77865-8.77869h3.8833a32.66192 32.66192 0 0 0 30.47168-20.63037l2.28027-5.70068a32.9869 32.9869 0 0 0 -9.63135-37.53125 87.99416 87.99416 0 0 0 -144.58081-98.03882 44.0681 44.0681 0 0 0 -41.73657-30.09888h-88a44.04978 44.04978 0 0 0 -44 44v44h-8a24 24 0 0 0 0 48h8.49854a87.32733 87.32733 0 0 0 39.50146 64.31812v40.92968l-27.52783-8.25854-67.71289-76.17676-8.9563 7.67676-6.47046-6.47071a32.77535 32.77535 0 0 0 -8.32471-32.32421l-4.96381-4.96387a32.90725 32.90725 0 0 0 -41.41163-4.10059l-14.314 9.54346a32.96718 32.96718 0 0 0 -12.2671 39.49566l2.28027 5.70068a32.66192 32.66192 0 0 0 30.47168 20.63032h3.8833l8.77869 8.77869-16.99207 14.56457 89.75257 96.65674h-44.337a23.99979 23.99979 0 0 0 -21.46631 34.73291l3.5776 7.15576v38.11133h-32a24.0275 24.0275 0 0 0 -24 24v64h16v-24h448v24h16v-64a24.0275 24.0275 0 0 0 -24-24zm-304-276.68652v4.68652h-8a8 8 0 0 1 0-16h8zm254.11133 212.68652a8 8 0 0 1 7.15576 11.57764l-5.26709 10.53369v41.88867h-64v-60.8584l2.91724-3.1416zm58.98193-168.27344-2.28027 5.70069a16.73822 16.73822 0 0 1 -15.61621 10.57275h-10.51026l-14.33545 14.33545-17.97021-15.40283 13.353-13.353-2.57862-5.15723a16.79852 16.79852 0 0 1 3.15039-19.41455l4.96387-4.96386a16.865 16.865 0 0 1 21.22217-2.10157l14.31494 9.54346a16.89526 16.89526 0 0 1 6.28665 20.24069zm-137.09326-95.72656v-9.00195a72.00761 72.00761 0 0 1 128.97534 64.03735l-3.60815-2.40552a32.90808 32.90808 0 0 0 -41.41114 4.10059l-4.96386 4.96387a32.77535 32.77535 0 0 0 -8.32471 32.32421l-6.47046 6.47071-8.9563-7.67676-2.10034 2.36279a72.48277 72.48277 0 0 1 -42.85693-23.28662 23.99871 23.99871 0 0 0 -2.28345-47.88867h-8zm0 40h8a8 8 0 0 1 0 16h-8zm-2.14331 41.97485a88.93307 88.93307 0 0 0 43.07422 26.936l-53.40308 60.07837-27.52783 8.25858v-40.92993a87.275 87.275 0 0 0 37.85669-54.34302zm-157.85669-81.97485v-20a28.03146 28.03146 0 0 1 28-28h88a28.03146 28.03146 0 0 1 28 28v4h-92.11768a55.634 55.634 0 0 0 -39.59814 16.40234l-12.28418 12.28366zm0 62.55713v-27.24365l23.59766-23.59766a39.73837 39.73837 0 0 1 28.28466-11.71582h92.11768v62.55713a71.60736 71.60736 0 0 1 -39.80127 64.39892l-14.31006 7.15577a40.19415 40.19415 0 0 1 -35.77685 0l-14.311-7.15577a71.60779 71.60779 0 0 1 -39.80082-64.39892zm104 82.38708v37.10364l-32 9.6001-32-9.6001v-37.10364l6.95605 3.47815a56.27114 56.27114 0 0 0 50.08838 0zm-228.68652-32.94421h-10.51026a16.73822 16.73822 0 0 1 -15.61622-10.57275l-2.28027-5.70069a16.89485 16.89485 0 0 1 6.28711-20.24072l14.314-9.54346a16.8644 16.8644 0 0 1 21.22263 2.10162l4.96387 4.96386a16.79852 16.79852 0 0 1 3.15039 19.41455l-2.57862 5.15723 13.353 13.353-17.97018 15.40281zm8.21338 40.65674 43.71386-37.46924 60.28711 67.82324 76.47217 22.94141v58.04785h16v-58.04785l76.47217-22.94141 60.28711-67.82324 43.71386 37.46924-100.47314 108.20166v67.1416h-176v-67.1416zm15.55614 115.13769a7.88773 7.88773 0 0 1 6.80567-3.79443h59.19409l2.91724 3.1416v60.8584h-64v-41.88867l-5.26709-10.53369a7.887 7.887 0 0 1 .35009-7.78321zm396.917 108.20557h-448v-24a8.00917 8.00917 0 0 1 8-8h432a8.00917 8.00917 0 0 1 8 8z"/><path d="m216 296h16v16h-16z"/><path d="m216 328h16v16h-16z"/></g></svg>