<svg height="512pt" viewBox="-1 0 512 512" width="512pt" xmlns="http://www.w3.org/2000/svg"><path d="m255.128906 398.359375c-49.757812 0-90.234375-40.480469-90.234375-90.230469v-13.941406c0-8.429688 6.835938-15.265625 15.265625-15.265625h149.933594c8.429688 0 15.265625 6.835937 15.265625 15.265625v13.941406c0 49.75-40.480469 90.230469-90.230469 90.230469zm0 0" fill="#145180"/><path d="m330.089844 278.917969h-74.960938v119.441406c49.753906-.003906 90.230469-40.480469 90.230469-90.230469v-13.941406c0-8.433594-6.835937-15.269531-15.269531-15.269531zm0 0" fill="#082130"/><path d="m164.894531 294.1875v-57.515625c-28.894531-25.75-45.320312-62.191406-45.320312-101.121094 0-74.742187 60.808593-135.550781 135.554687-135.550781 74.742188 0 135.550782 60.808594 135.550782 135.550781 0 38.929688-16.425782 75.371094-45.320313 101.121094v57.515625zm0 0" fill="#fff04a"/><path d="m255.128906 0v294.1875h90.226563v-57.515625c28.898437-25.75 45.320312-62.191406 45.320312-101.121094 0-74.742187-60.804687-135.54687475-135.546875-135.550781zm0 0" fill="#ff961f"/><path d="m308.277344 126.613281c-5.960938-5.960937-15.628906-5.960937-21.589844 0l-31.558594 31.558594-31.558594-31.558594c-5.960937-5.964843-15.628906-5.964843-21.589843 0-5.964844 5.960938-5.964844 15.628907 0 21.589844l37.882812 37.882813v108.101562h30.53125v-108.101562l37.882813-37.882813c5.960937-5.960937 5.960937-15.628906 0-21.589844zm0 0" fill="#fff"/><path d="m286.6875 126.613281-31.558594 31.558594v136.015625h15.265625v-108.101562l37.882813-37.882813c5.960937-5.960937 5.960937-15.628906 0-21.589844-5.960938-5.960937-15.628906-5.960937-21.589844 0zm0 0" fill="#fff04a"/><path d="m494.992188 512h-479.726563c-8.429687 0-15.265625-6.835938-15.265625-15.265625v-51.90625c0-8.429687 6.835938-15.265625 15.265625-15.265625h479.726563c8.429687 0 15.265624 6.835938 15.265624 15.265625v51.90625c0 8.429687-6.832031 15.265625-15.265624 15.265625zm0 0" fill="#9ffeff"/><path d="m494.992188 429.5625h-239.863282v82.4375h239.863282c8.429687 0 15.265624-6.835938 15.265624-15.265625v-51.90625c0-8.429687-6.832031-15.265625-15.265624-15.265625zm0 0" fill="#78e3f6"/><path d="m494.992188 429.5625h-121.882813v82.4375h121.882813c8.429687 0 15.265624-6.835938 15.265624-15.265625v-51.90625c0-8.429687-6.832031-15.265625-15.265624-15.265625zm0 0" fill="#082130"/><path d="m494.992188 370.03125h-56.660157c-8.429687 0-15.265625-6.835938-15.265625-15.269531 0-8.429688 6.835938-15.265625 15.265625-15.265625h56.660157c8.429687 0 15.265624 6.835937 15.265624 15.265625 0 8.433593-6.832031 15.269531-15.265624 15.269531zm0 0" fill="#082130"/><path d="m71.925781 339.496094h-13.0625v-13.0625c0-8.429688-6.835937-15.265625-15.265625-15.265625-8.433594 0-15.269531 6.835937-15.269531 15.265625v13.0625h-13.0625c-8.429687 0-15.265625 6.835937-15.265625 15.265625 0 8.433593 6.835938 15.269531 15.265625 15.269531h13.0625v13.0625c0 8.429688 6.835937 15.265625 15.269531 15.265625 8.429688 0 15.265625-6.835937 15.265625-15.265625v-13.0625h13.0625c8.429688 0 15.265625-6.835938 15.265625-15.269531 0-8.429688-6.832031-15.265625-15.265625-15.265625zm0 0" fill="#145180"/></svg>