<svg id="Layer_1" enable-background="new 0 0 512 512" viewBox="0 0 512 512" xmlns="http://www.w3.org/2000/svg"><path clip-rule="evenodd" d="m238.71 113.35h36.65v29.28h-36.65z" fill="#c8cccc" fill-rule="evenodd"/><path clip-rule="evenodd" d="m227.4 113.35h59.3c8.28 0 15.08-6.8 15.08-15.11v-53.86c0-8.31-6.8-15.08-15.08-15.08h-59.3c-8.31 0-15.11 6.77-15.11 15.08v53.86c0 8.31 6.81 15.11 15.11 15.11z" fill="#333" fill-rule="evenodd"/><path clip-rule="evenodd" d="m301.78 91.92v-47.54c0-8.31-6.8-15.08-15.08-15.08h-53.69v47.54c0 8.31 6.8 15.08 15.08 15.08z" fill="#595a5a" fill-rule="evenodd"/><path d="m188.74 52.63c2.92-2.49 7.31-2.15 9.84.77 2.49 2.95 2.15 7.34-.77 9.84-.82.71-1.5 1.76-2.01 3.03-.6 1.47-.91 3.2-.91 5.05s.31 3.6.91 5.05c.51 1.3 1.19 2.35 2.01 3.03 2.92 2.49 3.26 6.92.77 9.84-2.52 2.95-6.92 3.29-9.84.77-2.55-2.18-4.56-5.1-5.9-8.42-1.28-3.15-1.96-6.66-1.96-10.26s.68-7.11 1.96-10.23c1.33-3.37 3.34-6.29 5.9-8.47zm127.53 10.6c-2.92-2.49-3.26-6.89-.77-9.84 2.52-2.92 6.92-3.26 9.86-.77 2.52 2.18 4.54 5.1 5.87 8.45 1.28 3.12 1.96 6.63 1.96 10.23s-.68 7.11-1.96 10.26c-1.33 3.32-3.34 6.24-5.87 8.42-2.95 2.52-7.34 2.18-9.86-.77-2.49-2.92-2.15-7.34.77-9.84.82-.68 1.5-1.73 2.01-3.03.6-1.45.94-3.2.94-5.05s-.34-3.57-.94-5.05c-.51-1.25-1.19-2.3-2.01-3.01zm33.53-28.46c-2.95-2.49-3.29-6.92-.77-9.84 2.49-2.95 6.92-3.29 9.84-.77 6.09 5.24 10.97 12.39 14.29 20.61 3.23 8.05 5.02 17.15 5.02 26.53s-1.79 18.51-5.02 26.53c-3.32 8.25-8.19 15.39-14.29 20.64-2.92 2.49-7.34 2.15-9.84-.77-2.52-2.95-2.18-7.34.77-9.86 4.37-3.74 7.91-9.01 10.4-15.19 2.55-6.38 3.97-13.69 3.97-21.34 0-7.63-1.42-14.97-3.97-21.34-2.49-6.18-6.03-11.46-10.4-15.2zm-19.44 15.2c-2.92-2.49-3.26-6.92-.77-9.84 2.52-2.92 6.92-3.26 9.86-.77 4.2 3.6 7.54 8.5 9.78 14.12 2.18 5.41 3.4 11.54 3.4 17.83s-1.22 12.42-3.4 17.86c-2.24 5.61-5.58 10.49-9.78 14.09-2.95 2.52-7.34 2.18-9.86-.77-2.49-2.92-2.15-7.34.77-9.84 2.47-2.13 4.51-5.13 5.92-8.7 1.53-3.74 2.35-8.08 2.35-12.64 0-4.54-.82-8.87-2.35-12.64-1.42-3.57-3.46-6.58-5.92-8.7zm-175.16-25.8c2.95-2.52 7.34-2.18 9.84.77 2.52 2.92 2.18 7.34-.77 9.84-4.37 3.74-7.91 9.01-10.4 15.19-2.55 6.38-3.97 13.72-3.97 21.34 0 7.65 1.42 14.97 3.97 21.34 2.49 6.18 6.04 11.45 10.4 15.19 2.95 2.52 3.29 6.92.77 9.86-2.49 2.92-6.89 3.26-9.84.77-6.09-5.24-10.97-12.39-14.29-20.64-3.23-8.02-5.02-17.15-5.02-26.53s1.79-18.48 5.02-26.53c3.32-8.21 8.2-15.35 14.29-20.6zm19.45 15.19c2.92-2.49 7.31-2.15 9.84.77 2.49 2.92 2.15 7.34-.77 9.84-2.47 2.13-4.48 5.13-5.92 8.7-1.5 3.77-2.35 8.11-2.35 12.64 0 4.56.85 8.9 2.35 12.64 1.45 3.57 3.46 6.58 5.92 8.7 2.92 2.49 3.26 6.92.77 9.84-2.52 2.95-6.92 3.29-9.84.77-4.22-3.6-7.57-8.48-9.81-14.09-2.18-5.44-3.4-11.57-3.4-17.86s1.22-12.42 3.4-17.83c2.24-5.61 5.58-10.51 9.81-14.12z" fill="#c52427"/><g clip-rule="evenodd" fill-rule="evenodd"><path d="m203.65 479.3h106.78c12.3 0 22.37-10.06 22.37-22.37v-115.05l16.44-13.24v-148.42l-25.65-37.59c-44.36 0-88.72 0-133.09 0l-25.65 37.59v148.42l16.44 13.1v115.2c-.01 12.3 10.05 22.36 22.36 22.36z" fill="#fdb517"/><path d="m217.39 479.3h93.03c12.3 0 22.37-10.06 22.37-22.37v-115.05l16.44-13.24v-148.42l-25.65-37.59h-101.59l-21 30.78v148.39l16.41 13.12v144.38z" fill="#febf3a"/><path d="m194.21 179.14h125.66v115.88h-125.66z" fill="#b9c5c3"/><path d="m203.39 179.14h116.48v105.79c-55.65-10.94-100.41-52.16-116.48-105.79z" fill="#cdd6d4"/><path d="m203.65 479.3h9.84v-92.98c0-7.03-3.26-13.07-9.16-16.92l-23.05-15v102.53c0 12.31 10.06 22.37 22.37 22.37z" fill="#353535"/><path d="m239.5 348.57h35.06c3.17 0 5.75 2.61 5.75 5.75v31.44c0 3.17-2.58 5.75-5.75 5.75h-35.06c-3.15 0-5.75-2.58-5.75-5.75v-31.44c0-3.14 2.61-5.75 5.75-5.75z" fill="#cb3727"/><path d="m198.74 318.89h17.55c1.59 0 2.86 1.3 2.86 2.86v15.73c0 1.59-1.28 2.86-2.86 2.86h-17.55c-1.56 0-2.86-1.28-2.86-2.86v-15.73c0-1.56 1.3-2.86 2.86-2.86z" fill="#53545e"/><path d="m297.78 318.89h17.55c1.59 0 2.86 1.3 2.86 2.86v15.73c0 1.59-1.28 2.86-2.86 2.86h-17.55c-1.59 0-2.86-1.28-2.86-2.86v-15.73c0-1.56 1.28-2.86 2.86-2.86z" fill="#53545e"/><path d="m310.43 479.3h-9.84v-92.98c0-7.03 3.29-13.07 9.16-16.92l23.05-15v102.53c-.01 12.31-10.07 22.37-22.37 22.37z" fill="#353535"/></g></svg>