<svg height="512" viewBox="0 0 64 64" width="512" xmlns="http://www.w3.org/2000/svg"><g id="Sleep"><g><g><path clip-rule="evenodd" d="m61.121 40.762c-13.812 4.686-26.395-4.523-26.395-18.094 0-6.499 3.768-12.865 8.679-16.479.185-.133.13-.348-.075-.379-22.885-.789-31.662 19.391-25.137 34.375 8.459 19.425 37.39 19.688 43.752 1.201.12-.344.12-.945-.824-.624z" fill="#ffd670" fill-rule="evenodd"/></g><g><path clip-rule="evenodd" d="m34.726 22.668c0-6.499 3.768-12.865 8.679-16.479.185-.133.13-.348-.075-.379-2.224-.078-4.315.044-6.273.341-3.86 4.42-6.482 10.308-6.482 16.288 0 15.684 13.795 26.586 29.574 22.794.712-1.178 1.318-2.458 1.797-3.847.12-.345.12-.945-.825-.625-13.812 4.687-26.395-4.522-26.395-18.093z" fill="#ffc942" fill-rule="evenodd"/></g><g><path d="m49.906 30.344h-3.665c-.394 0-.75-.231-.912-.589-.161-.359-.097-.779.164-1.074l2.191-2.474h-1.443c-.552 0-1-.448-1-1s.448-1 1-1h3.665c.394 0 .75.231.912.589.161.359.097.779-.164 1.074l-2.191 2.474h1.443c.552 0 1 .448 1 1s-.448 1-1 1z" fill="#5c5757"/></g><g><path d="m52.418 16.773h-3.668c-.394 0-.75-.231-.912-.59-.161-.359-.097-.779.164-1.074l2.193-2.474h-1.445c-.552 0-1-.448-1-1s.448-1 1-1h3.668c.394 0 .75.231.912.59.161.359.097.779-.164 1.074l-2.193 2.474h1.445c.552 0 1 .448 1 1s-.448 1-1 1z" fill="#5c5757"/></g><g><path d="m61.969 27.071h-6.56c-.392 0-.749-.229-.911-.586s-.101-.776.158-1.072l5.111-5.848h-4.358c-.552 0-1-.448-1-1s.448-1 1-1h6.56c.392 0 .749.229.911.586s.101.776-.158 1.072l-5.111 5.848h4.358c.552 0 1 .448 1 1s-.448 1-1 1z" fill="#5c5757"/></g><g><path clip-rule="evenodd" d="m27.563 17.651c0-5.867-3.977-10.81-9.387-12.295-1.081-.297-2.221-.454-3.395-.454-7.059 0-12.781 5.707-12.781 12.749 0 7.031 5.715 12.749 12.782 12.749 7.056-.001 12.781-5.711 12.781-12.749z" fill="#76a8fa" fill-rule="evenodd"/></g><g><path clip-rule="evenodd" d="m23.118 17.651c0-4.594-3.734-8.318-8.336-8.318-4.606 0-8.34 3.724-8.34 8.318 0 4.591 3.734 8.315 8.34 8.315 4.602-.001 8.336-3.725 8.336-8.315z" fill="#f0f0f0" fill-rule="evenodd"/></g><g><path clip-rule="evenodd" d="m15.196 5.469c5.41 1.481 9.383 6.424 9.383 12.291 0 6.373-4.685 11.653-10.807 12.598.332.027.667.041 1.01.041 7.056 0 12.782-5.71 12.782-12.749 0-5.867-3.977-10.81-9.387-12.295-1.081-.297-2.221-.454-3.395-.454-.671 0-1.331.051-1.975.15.821.066 1.619.206 2.389.418z" fill="#5694f7" fill-rule="evenodd"/></g><g><path d="m14.782 18.65c-.112 0-.224-.019-.333-.057l-2.769-.976c-.521-.184-.794-.754-.61-1.275.183-.521.755-.795 1.275-.61l1.436.506v-3.137c0-.552.448-1 1-1s1 .448 1 1v4.55c0 .325-.157.629-.422.816-.171.121-.373.183-.577.183z" fill="#5c5757"/></g><g><path clip-rule="evenodd" d="m15.343 9.855c2.899 1.3 4.918 4.209 4.918 7.584 0 4.318-3.296 7.864-7.512 8.277.65.164 1.331.249 2.033.249 4.603 0 8.336-3.724 8.336-8.315 0-4.308-3.278-7.847-7.481-8.274-.281-.031-.568-.044-.856-.044-.281 0-.554.014-.828.041.483.12.945.28 1.39.482z" fill="#dbdbdb" fill-rule="evenodd"/></g><g><path clip-rule="evenodd" d="m41.372 53.261c0 3.185-2.57 5.837-5.848 5.837h-17.642c-3.189 0-5.848-2.567-5.848-5.837 0-2.741 1.951-5.038 4.521-5.659 0-.085 0-.085 0-.174 0-4.331 3.545-7.868 7.888-7.868 3.217 0 5.999 1.939 7.221 4.707.192-.027.383-.041.578-.041 2.005 0 3.682 1.41 4.089 3.287 2.854.485 5.041 2.861 5.041 5.748z" fill="#bde0fe" fill-rule="evenodd"/></g><g><path clip-rule="evenodd" d="m28.114 47.466c2.005 0 3.682 1.406 4.089 3.287 2.207.372 4.014 1.877 4.723 3.874.205.587.318 1.215.318 1.87 0 .884-.198 1.727-.554 2.485 2.115-.427 3.788-1.98 4.415-3.976.175-.553.267-1.137.267-1.744 0-2.888-2.187-5.263-5.041-5.748-.407-1.877-2.084-3.287-4.089-3.287-.195 0-.387.017-.578.041-1.222-2.768-4.004-4.707-7.221-4.707-2.129 0-4.065.846-5.486 2.222-.441.43-.835.908-1.17 1.43.561-.191 1.146-.321 1.752-.379.257-.024.513-.038.777-.038 3.217 0 5.999 1.942 7.224 4.707.188-.024.379-.037.574-.037z" fill="#a2d2ff" fill-rule="evenodd"/></g></g></g></svg>