<svg id="Capa_1" enable-background="new 0 0 510 510" height="512" viewBox="0 0 510 510" width="512" xmlns="http://www.w3.org/2000/svg" xmlns:xlink="http://www.w3.org/1999/xlink"><linearGradient id="lg1"><stop offset="0" stop-color="#eaf9fa"/><stop offset="1" stop-color="#b3dafe"/></linearGradient><linearGradient id="SVGID_1_" gradientUnits="userSpaceOnUse" x1="215.53" x2="316.025" xlink:href="#lg1" y1="231.364" y2="250.863"/><linearGradient id="lg2"><stop offset="0" stop-color="#7bacdf" stop-opacity="0"/><stop offset="1" stop-color="#7bacdf"/></linearGradient><linearGradient id="SVGID_00000152264209964715675360000018342610822996274341_" gradientUnits="userSpaceOnUse" x1="254.999" x2="254.999" xlink:href="#lg2" y1="344.208" y2="390.706"/><linearGradient id="SVGID_00000065054180349859369320000012640178512133108409_" gradientUnits="userSpaceOnUse" x1="355.101" x2="281.767" xlink:href="#lg2" y1="354.412" y2="194.412"/><linearGradient id="SVGID_00000109715349398633757550000012735036583546866612_" gradientUnits="userSpaceOnUse" x1="200.361" x2="332.222" y1="158.476" y2="290.338"><stop offset="0" stop-color="#fee45a"/><stop offset=".208" stop-color="#fede54"/><stop offset=".5015" stop-color="#fece41"/><stop offset=".8442" stop-color="#feb423"/><stop offset="1" stop-color="#fea613"/></linearGradient><linearGradient id="SVGID_00000047025525383204933060000016387634398988020138_" gradientUnits="userSpaceOnUse" x1="396.024" x2="96.024" y1="290.862" y2="53.528"><stop offset="0" stop-color="#fea613" stop-opacity="0"/><stop offset="1" stop-color="#e94444"/></linearGradient><linearGradient id="SVGID_00000105405779394842702940000016592137560615456434_" gradientUnits="userSpaceOnUse" x1="255" x2="255" y1="385.111" y2="505.622"><stop offset="0" stop-color="#017297"/><stop offset="1" stop-color="#024c67"/></linearGradient><linearGradient id="SVGID_00000033356157364676035180000010965645201422978718_" gradientUnits="userSpaceOnUse" x1="255" x2="255" xlink:href="#lg1" y1="376.19" y2="416.361"/><linearGradient id="SVGID_00000003090473008278138630000015616630444923385501_" gradientUnits="userSpaceOnUse" x1="255" x2="255" xlink:href="#lg1" y1="420.794" y2="460.964"/><linearGradient id="lg3"><stop offset="0" stop-color="#fe860a"/><stop offset=".2435" stop-color="#fb7c0e"/><stop offset=".6648" stop-color="#f55f19"/><stop offset="1" stop-color="#ef4424"/></linearGradient><linearGradient id="SVGID_00000147215851754004036940000008647517580062166947_" gradientUnits="userSpaceOnUse" x1="247.838" x2="260.05" xlink:href="#lg3" y1="199.108" y2="234.049"/><linearGradient id="SVGID_00000098202048145854283460000003399602798183298702_" gradientUnits="userSpaceOnUse" x1="244.732" x2="258.641" xlink:href="#lg3" y1="151.56" y2="202.105"/><linearGradient id="SVGID_00000043448733474400534510000006821863020827091586_" gradientUnits="userSpaceOnUse" x1="244.252" x2="259.178" xlink:href="#lg3" y1="115.71" y2="170.326"/><linearGradient id="SVGID_00000076576700842653615320000003601193718074832314_" gradientUnits="userSpaceOnUse" x1="238.717" x2="265.686" xlink:href="#lg3" y1="234.935" y2="261.904"/><linearGradient id="lg4"><stop offset="0" stop-color="#62dbfb"/><stop offset=".1912" stop-color="#57d5fa"/><stop offset=".5232" stop-color="#3bc5f7"/><stop offset=".954" stop-color="#0dabf2"/><stop offset="1" stop-color="#08a9f1"/></linearGradient><linearGradient id="SVGID_00000082362152580853467960000004429918561019165323_" gradientUnits="userSpaceOnUse" x1="200.026" x2="467.013" xlink:href="#lg4" y1="-68.079" y2="386.399"/><linearGradient id="SVGID_00000096045328547050807740000015977483443841627583_" gradientUnits="userSpaceOnUse" x1="261.21" x2="528.196" xlink:href="#lg4" y1="-104.021" y2="350.456"/><linearGradient id="SVGID_00000127004188579242329610000010506112648096347008_" gradientUnits="userSpaceOnUse" x1="-35.406" x2="231.58" xlink:href="#lg4" y1="70.229" y2="524.706"/><linearGradient id="SVGID_00000126295951804762119780000003207518987842845099_" gradientUnits="userSpaceOnUse" x1="279.378" x2="546.364" xlink:href="#lg4" y1="-114.694" y2="339.783"/><linearGradient id="SVGID_00000023986366792640483620000007728150749716138124_" gradientUnits="userSpaceOnUse" x1="69.639" x2="336.625" xlink:href="#lg4" y1="8.519" y2="462.996"/><linearGradient id="SVGID_00000086654518544882631250000016689393238791071642_" gradientUnits="userSpaceOnUse" x1="249.47" x2="516.456" xlink:href="#lg4" y1="-97.124" y2="357.353"/><linearGradient id="SVGID_00000157291319723247553620000007411406853157947273_" gradientUnits="userSpaceOnUse" x1="217.473" x2="484.46" xlink:href="#lg4" y1="-78.328" y2="376.149"/><linearGradient id="SVGID_00000093146483670205765890000005581106736303520172_" gradientUnits="userSpaceOnUse" x1="8.33" x2="275.317" xlink:href="#lg4" y1="44.535" y2="499.012"/><linearGradient id="SVGID_00000083791698989695258350000014510810175236661382_" gradientUnits="userSpaceOnUse" x1="283.413" x2="550.4" xlink:href="#lg4" y1="-117.065" y2="337.413"/><linearGradient id="SVGID_00000154395046058410178590000018105249833356778394_" gradientUnits="userSpaceOnUse" x1="-57.609" x2="209.377" xlink:href="#lg4" y1="83.272" y2="537.749"/><linearGradient id="SVGID_00000088111438301475941930000006453176628111379867_" gradientUnits="userSpaceOnUse" x1="135.526" x2="402.513" xlink:href="#lg4" y1="-30.187" y2="424.29"/><g><g><g><path d="m254.709 64.884c-82.976.157-150.562 68.292-150.079 151.266.279 47.835 22.893 90.377 57.942 117.726 9.143 7.134 14.497 18.073 14.497 29.67 0 24.994 20.261 45.255 45.255 45.255h65.352c24.994 0 45.255-20.261 45.255-45.255v-.003c0-11.586 5.34-22.525 14.476-29.651 35.279-27.518 57.965-70.428 57.965-118.636 0-83.146-67.481-150.53-150.663-150.372z" fill="url(#SVGID_1_)"/><path d="m129.558 298.186c9.015 13.608 20.176 25.672 33.014 35.689 9.142 7.134 14.497 18.074 14.497 29.67 0 24.994 20.261 45.255 45.255 45.255h65.352c24.994 0 45.255-20.262 45.255-45.255v-.003c0-11.586 5.34-22.525 14.476-29.651 12.847-10.021 24.013-22.09 33.033-35.706h-250.882z" fill="url(#SVGID_00000152264209964715675360000018342610822996274341_)"/><path d="m278.221 298.186 55.926 55.926c2.056-7.933 6.661-15.073 13.26-20.22 12.847-10.021 24.013-22.091 33.033-35.706z" fill="url(#SVGID_00000065054180349859369320000012640178512133108409_)"/><path d="m254.71 64.883c-82.98.16-150.56 68.29-150.08 151.27.18 30.31 9.32 58.49 24.92 82.03h250.9c15.75-23.77 24.92-52.28 24.92-82.93 0-83.14-67.48-150.53-150.66-150.37z" fill="url(#SVGID_00000109715349398633757550000012735036583546866612_)"/><path d="m256.001 120.014c-29.193 0-57.492 8.402-81.84 24.299-6.471 4.225-8.292 12.896-4.067 19.367l23.035 23.107c-.854 3.056-.451 6.447 1.413 9.318l21.426 21.717c-.805 2.458-.54 5.243.967 7.589l22.872 22.41c-1.519 5.616-.089 11.863 4.32 16.272l34.091 34.091h102.232c15.75-23.77 24.92-52.28 24.92-82.93 0-1.108-.018-2.211-.042-3.313l-67.488-67.626c-24.347-15.898-52.647-24.301-81.839-24.301z" fill="url(#SVGID_00000047025525383204933060000016387634398988020138_)"/><circle cx="255" cy="443.095" fill="url(#SVGID_00000105405779394842702940000016592137560615456434_)" r="66.905"/><path d="m329.339 417.82h-148.678c-12.318 0-22.302-9.985-22.302-22.302s9.983-22.302 22.302-22.302h148.677c12.318 0 22.302 9.985 22.302 22.302s-9.983 22.302-22.301 22.302z" fill="url(#SVGID_00000033356157364676035180000010965645201422978718_)"/><path d="m329.339 462.423h-148.678c-12.318 0-22.302-9.985-22.302-22.302s9.983-22.302 22.302-22.302h148.677c12.318 0 22.302 9.985 22.302 22.302s-9.983 22.302-22.301 22.302z" fill="url(#SVGID_00000003090473008278138630000015616630444923385501_)"/></g></g><g><g><path d="m291.387 212.105c-10.853-6.973-23.436-10.659-36.387-10.659s-25.533 3.686-36.387 10.658c-4.138 2.659-5.337 8.168-2.679 12.305s8.167 5.336 12.305 2.679c7.976-5.124 17.23-7.833 26.761-7.833s18.785 2.709 26.761 7.833c1.49.957 3.156 1.414 4.805 1.414 2.93 0 5.799-1.445 7.5-4.093 2.658-4.136 1.459-9.646-2.679-12.304z" fill="url(#SVGID_00000147215851754004036940000008647517580062166947_)"/><path d="m313.093 179.267c-17.299-11.235-37.387-17.174-58.093-17.174s-40.794 5.939-58.093 17.174c-5.303 3.444-6.81 10.535-3.365 15.838 3.444 5.303 10.536 6.809 15.838 3.365 13.577-8.818 29.352-13.479 45.62-13.479s32.044 4.661 45.62 13.479c1.926 1.251 4.088 1.849 6.225 1.849 3.747 0 7.419-1.838 9.612-5.214 3.445-5.304 1.939-12.394-3.364-15.838z" fill="url(#SVGID_00000098202048145854283460000003399602798183298702_)"/><path d="m336.84 143.313c-24.347-15.897-52.647-24.299-81.84-24.299s-57.492 8.402-81.84 24.299c-6.471 4.225-8.292 12.896-4.067 19.367s12.896 8.292 19.367 4.067c19.786-12.919 42.795-19.747 66.54-19.747s46.754 6.828 66.54 19.747c2.36 1.541 5.013 2.278 7.637 2.278 4.568 0 9.046-2.234 11.73-6.345 4.225-6.471 2.404-15.142-4.067-19.367z" fill="url(#SVGID_00000043448733474400534510000006821863020827091586_)"/></g><circle cx="255" cy="251.218" fill="url(#SVGID_00000076576700842653615320000003601193718074832314_)" r="16.792"/></g><g><path d="m255 0c-4.142 0-7.5 3.358-7.5 7.5v36c0 4.142 3.358 7.5 7.5 7.5s7.5-3.358 7.5-7.5v-36c0-4.142-3.358-7.5-7.5-7.5z" fill="url(#SVGID_00000082362152580853467960000004429918561019165323_)"/><path d="m472.49 217.49h-36c-4.142 0-7.5 3.358-7.5 7.5s3.358 7.5 7.5 7.5h36c4.142 0 7.5-3.358 7.5-7.5s-3.358-7.5-7.5-7.5z" fill="url(#SVGID_00000096045328547050807740000015977483443841627583_)"/><path d="m81.01 224.99c0-4.142-3.358-7.5-7.5-7.5h-36c-4.142 0-7.5 3.358-7.5 7.5s3.358 7.5 7.5 7.5h36c4.142 0 7.5-3.358 7.5-7.5z" fill="url(#SVGID_00000127004188579242329610000010506112648096347008_)"/><path d="m414.092 65.898c-2.929-2.929-7.678-2.929-10.606 0l-25.456 25.456c-2.929 2.929-2.929 7.678 0 10.606 1.464 1.464 3.384 2.197 5.303 2.197s3.839-.732 5.303-2.197l25.456-25.456c2.929-2.928 2.929-7.677 0-10.606z" fill="url(#SVGID_00000126295951804762119780000003207518987842845099_)"/><path d="m106.515 65.898c-2.929-2.929-7.678-2.929-10.606 0-2.929 2.929-2.929 7.678 0 10.606l25.456 25.456c1.464 1.465 3.384 2.197 5.303 2.197s3.839-.732 5.303-2.197c2.929-2.929 2.929-7.678 0-10.606z" fill="url(#SVGID_00000023986366792640483620000007728150749716138124_)"/><path d="m339.741 16.568c-3.835-1.558-8.212.286-9.772 4.123l-13.559 33.349c-1.56 3.837.286 8.212 4.123 9.772.925.376 1.881.554 2.822.554 2.96 0 5.766-1.765 6.95-4.677l13.559-33.349c1.56-3.836-.286-8.212-4.123-9.772z" fill="url(#SVGID_00000086654518544882631250000016689393238791071642_)"/><path d="m459.298 299.958-33.349-13.559c-3.836-1.559-8.212.286-9.772 4.123s.286 8.212 4.123 9.772l33.349 13.559c.925.376 1.881.554 2.822.554 2.96 0 5.766-1.765 6.95-4.677 1.56-3.836-.285-8.212-4.123-9.772z" fill="url(#SVGID_00000157291319723247553620000007411406853157947273_)"/><path d="m50.702 150.022 33.349 13.559c.925.376 1.881.554 2.822.554 2.96 0 5.766-1.765 6.95-4.677 1.56-3.837-.286-8.212-4.123-9.772l-33.349-13.559c-3.837-1.559-8.212.286-9.772 4.123-1.56 3.836.285 8.212 4.123 9.772z" fill="url(#SVGID_00000093146483670205765890000005581106736303520172_)"/><path d="m422.221 161.945c.972 0 1.96-.19 2.912-.592l33.169-13.994c3.816-1.61 5.605-6.009 3.995-9.826-1.61-3.815-6.007-5.604-9.826-3.995l-33.169 13.994c-3.816 1.61-5.605 6.009-3.995 9.826 1.209 2.865 3.989 4.587 6.914 4.587z" fill="url(#SVGID_00000083791698989695258350000014510810175236661382_)"/><path d="m84.867 288.626-33.169 13.994c-3.816 1.61-5.605 6.009-3.995 9.826 1.208 2.864 3.988 4.586 6.914 4.586.972 0 1.96-.19 2.912-.592l33.169-13.994c3.816-1.61 5.605-6.009 3.995-9.826-1.61-3.814-6.007-5.603-9.826-3.994z" fill="url(#SVGID_00000154395046058410178590000018105249833356778394_)"/><path d="m177.37 21.688c-1.61-3.815-6.007-5.605-9.826-3.995-3.816 1.61-5.605 6.009-3.995 9.826l13.994 33.169c1.208 2.864 3.988 4.586 6.914 4.586.972 0 1.96-.19 2.912-.592 3.816-1.61 5.605-6.009 3.995-9.826z" fill="url(#SVGID_00000088111438301475941930000006453176628111379867_)"/></g></g></svg>