<svg height="512" viewBox="0 0 58 58" width="512" xmlns="http://www.w3.org/2000/svg"><g id="Page-1" fill="none" fill-rule="evenodd"><g id="023---Warm-and-Cold-Settings" fill-rule="nonzero" transform="translate(0 -1)"><path id="Shape" d="m2 59c-.8087918-.0001727-1.5378681-.487455-1.84735596-1.2346909-.30948785-.7472359-.13845987-1.6073206.43335596-2.1793091l54-54c.5021489-.51991317 1.2457558-.72842519 1.9450146-.54539431.6992589.18303088 1.2453488.7291208 1.4283797 1.42837966.1830309.69925887-.0254811 1.44286571-.5453943 1.94501465l-54 54c-.37435905.3760348-.88339099.5869915-1.414.586z" fill="#ff5364"/><g fill="#f3d55b"><path id="Shape" d="m28.005 12.172h-2.005c-.4842301.0006212-.8879082-.370432-.928-.853l-.776-9.311c-.0214631-.25857719.0659549-.51438052.2411796-.70574181.1752247-.19136128.4223574-.30091786.6818204-.30225819h3.562c.2603339-.00005304.5087981.10889764.6851247.30042486.1763267.19152722.2644067.44813312.2428753.70757514l-.776 9.311c-.0400918.482568-.4437699.8536212-.928.853z"/><path id="Shape" d="m11.172 29.005v-2.005c.0006212-.4842301-.370432-.8879082-.853-.928l-9.311-.776c-.25857718-.0214631-.51438052.0659549-.70574181.2411796-.19136128.1752247-.30091786.4223574-.30225819.6818204v3.562c-.00005304.2603339.10889764.5087981.30042486.6851247.19152722.1763267.44813312.2644067.70757514.2428753l9.311-.776c.482568-.0400918.8536212-.4437699.853-.928z"/><path id="Shape" d="m19.957 13.79-1.741 1.01c-.4197052.2418987-.9547511.1219371-1.231-.276l-5.327-7.679c-.1483563-.21396224-.2003383-.48027201-.1433344-.73431924s.2177845-.47261671.4433344-.60268076l3.086-1.781c.2253111-.13029252.4949106-.16020754.743304-.0824777.2483934.07772985.4528484.25599092.563696.4914777l3.984 8.451c.2055725.438313.0413245.9610387-.378 1.203z"/><path id="Shape" d="m13.8 36.784-1.01-1.741c-.2421178-.4173325-.7627158-.580887-1.2-.377l-8.454 3.984c-.23548678.1108476-.41374785.3153026-.4914777.563696-.07772984.2483934-.04781482.5179929.0824777.743304l1.781 3.086c.13006405.2255499.34863353.3863305.60268076.4433344s.520357.0050219.73431924-.1433344l7.675-5.327c.3999114-.2750965.5217252-.811077.28-1.232z"/><path id="Shape" d="m35.784 14.8-1.741-1.01c-.4173325-.2421178-.580887-.7627158-.377-1.2l3.984-8.454c.1108476-.23548678.3153026-.41374785.563696-.4914777.2483934-.07772984.5179929-.04781482.743304.0824777l3.086 1.781c.2255499.13006405.3863305.34863353.4433344.60268076s.0050219.520357-.1433344.73431924l-5.328 7.675c-.2750219.3993445-.8103046.5210986-1.231.28z"/><path id="Shape" d="m12.79 20.957 1.01-1.741c.2418987-.4197052.1219371-.9547511-.276-1.231l-7.679-5.327c-.21396224-.1483563-.48027201-.2003383-.73431924-.1433344s-.47261671.2177845-.60268076.4433344l-1.781 3.085c-.13029252.2253111-.16020754.4949106-.0824777.743304.07772985.2483934.25599092.4528484.4914777.563696l8.451 3.984c.4380609.2057422.9607082.0419533 1.203-.377z"/></g><path id="Shape" d="m56.5 27.9-5.56 1.49 4.82 2.37c.9361862.4584424 1.3720317 1.5521983 1.0077173 2.5288707-.3643143.9766725-1.4099955 1.5177955-2.4177173 1.2511293-.1284815-.0317238-.2526999-.0787253-.37-.14l-8.99-4.42-9.58 2.57 7.01 7.01 10 .67c1.104942.0902997 1.9318654 1.0523095 1.8552138 2.1582821-.0766516 1.1059727-1.0283791 1.9447096-2.1352138 1.8817179l-5.36-.36 4.07 4.07c.7925286.7925286.7925286 2.0774714 0 2.87s-2.0774714.7925286-2.87 0l-4.07-4.07.36 5.36c.0381155.5376036-.1400791 1.0681621-.4949821 1.4737656-.3549031.4056035-.8571123.6526493-1.3950179.6862344-.5349521.0381218-1.0629702-.1390165-1.4666999-.4920453s-.6497206-.8526983-.6833001-1.3879547l-.67-10-7.01-7.01-2.57 9.58 4.42 8.99c.4911318 1.002602.0800124 2.2136167-.92 2.71-.4388619.2248175-.9476117.2713932-1.42.13-.5684788-.1442716-1.0442426-.5322021-1.3-1.06l-2.37-4.82-1.49 5.56c-.1875644.6984542-.733502 1.2437881-1.4321633 1.4305797-.6986614.1867915-1.4439031-.0133374-1.955-.525-.5110969-.5116627-.7104011-1.2571255-.5228367-1.9555797l1.49-5.56-4.47 2.99c-.9306458.6266163-2.1930289.3804069-2.82-.55-.29838-.4468864-.4070086-.9940026-.3019875-1.5209833.1050211-.5269806.4150885-.9906557.8619875-1.2890167l8.32-5.58 2.33-8.68 6.87-6.87 8.67-2.32 5.58-8.32c.397632-.6147502 1.0961291-.9669918 1.8268387-.9212474.7307096.0457445 1.3798226.4823503 1.6976803 1.1418922.3178578.6595419.2549535 1.4392953-.164519 2.0393552l-2.99 4.47 5.56-1.49c1.0797167-.2899495 2.1900505.3502833 2.4799999 1.43.2899495 1.0797167-.3502832 2.1900505-1.4299999 2.48z" fill="#2980ba"/><path id="Shape" d="m33.47 19.87-14.6 14.6c-2.8896707-4.169233-2.3826682-9.8087291 1.2043013-13.3956987 3.5869696-3.5869695 9.2264657-4.093972 13.3956987-1.2043013z" fill="#f0c419"/></g></g></svg>