<svg width="18" height="18" viewBox="0 0 18 18" fill="none" xmlns="http://www.w3.org/2000/svg">
  <g clip-path="url(#clip0)">
    <path d="M16.5 0H1.5C0.672 0 0 0.672 0 1.5V16.5C0 17.328 0.672 18 1.5 18H16.5C17.328 18 18 17.328 18 16.5V1.5C18 0.672 17.328 0 16.5 0Z" fill="#0077B5"/>
    <path d="M5.3418 14.2496H3.2588V7.01657H5.3418V14.2496ZM4.2973 6.13667C3.6386 6.13667 3.1035 5.60157 3.1035 4.94287C3.1035 4.28417 3.6386 3.74907 4.2973 3.74907C4.956 3.74907 5.4911 4.28417 5.4911 4.94287C5.4911 5.60157 4.956 6.13667 4.2973 6.13667ZM15.0002 14.2496H12.9182V10.7711C12.9182 9.77177 12.9006 8.46027 11.4778 8.46027C10.0424 8.46027 9.8357 9.53517 9.8357 10.7003V14.2496H7.7542V7.01657H9.7176V8.05647H9.7461C10.0133 7.55847 10.7178 7.02087 11.7478 7.02087C14.0406 7.02087 15.0002 8.53547 15.0002 10.5848V14.2496Z" fill="white"/>
  </g>
  <defs>
    <clipPath id="clip0">
      <rect width="18" height="18" fill="white"/>
    </clipPath>
  </defs>
</svg>
